<?xml version="1.0" encoding="UTF-8" standalone="no"?>
<!DOCTYPE svg PUBLIC "-//W3C//DTD SVG 1.1//EN"
 "http://www.w3.org/Graphics/SVG/1.1/DTD/svg11.dtd">
<!-- Generated by graphviz version 2.43.0 (0)
 -->
<!-- Title: Tree Pages: 1 -->
<svg width="1228pt" height="373pt"
 viewBox="0.00 0.00 1227.50 373.00" xmlns="http://www.w3.org/2000/svg" xmlns:xlink="http://www.w3.org/1999/xlink">
<g id="graph0" class="graph" transform="scale(1 1) rotate(0) translate(4 369)">
<title>Tree</title>
<polygon fill="white" stroke="transparent" points="-4,4 -4,-369 1223.5,-369 1223.5,4 -4,4"/>
<!-- 0 -->
<g id="node1" class="node">
<title>0</title>
<path fill="#f1b991" stroke="black" d="M624,-365C624,-365 481,-365 481,-365 475,-365 469,-359 469,-353 469,-353 469,-309 469,-309 469,-303 475,-297 481,-297 481,-297 624,-297 624,-297 630,-297 636,-303 636,-309 636,-309 636,-353 636,-353 636,-359 630,-365 624,-365"/>
<text text-anchor="start" x="510.5" y="-349.8" font-family="Helvetica,sans-Serif" font-size="14.00">time ≤ 16.5</text>
<text text-anchor="start" x="508.5" y="-334.8" font-family="Helvetica,sans-Serif" font-size="14.00">gini = 0.426</text>
<text text-anchor="start" x="495" y="-319.8" font-family="Helvetica,sans-Serif" font-size="14.00">samples = 6127</text>
<text text-anchor="start" x="477" y="-304.8" font-family="Helvetica,sans-Serif" font-size="14.00">value = [4244, 1883]</text>
</g>
<!-- 1 -->
<g id="node2" class="node">
<title>1</title>
<path fill="#efb287" stroke="black" d="M548,-261C548,-261 295,-261 295,-261 289,-261 283,-255 283,-249 283,-249 283,-205 283,-205 283,-199 289,-193 295,-193 295,-193 548,-193 548,-193 554,-193 560,-199 560,-205 560,-205 560,-249 560,-249 560,-255 554,-261 548,-261"/>
<text text-anchor="start" x="291" y="-245.8" font-family="Helvetica,sans-Serif" font-size="14.00">NUMBER OF MOTORIST KILLED ≤ 0.5</text>
<text text-anchor="start" x="377.5" y="-230.8" font-family="Helvetica,sans-Serif" font-size="14.00">gini = 0.405</text>
<text text-anchor="start" x="364" y="-215.8" font-family="Helvetica,sans-Serif" font-size="14.00">samples = 4226</text>
<text text-anchor="start" x="346" y="-200.8" font-family="Helvetica,sans-Serif" font-size="14.00">value = [3035, 1191]</text>
</g>
<!-- 0&#45;&gt;1 -->
<g id="edge1" class="edge">
<title>0&#45;&gt;1</title>
<path fill="none" stroke="black" d="M509.97,-296.88C497.96,-287.53 484.76,-277.26 472.32,-267.57"/>
<polygon fill="black" stroke="black" points="474.31,-264.68 464.27,-261.3 470.01,-270.2 474.31,-264.68"/>
<text text-anchor="middle" x="467.35" y="-282.41" font-family="Helvetica,sans-Serif" font-size="14.00">True</text>
</g>
<!-- 8 -->
<g id="node9" class="node">
<title>8</title>
<path fill="#f4c9aa" stroke="black" d="M818.5,-261C818.5,-261 684.5,-261 684.5,-261 678.5,-261 672.5,-255 672.5,-249 672.5,-249 672.5,-205 672.5,-205 672.5,-199 678.5,-193 684.5,-193 684.5,-193 818.5,-193 818.5,-193 824.5,-193 830.5,-199 830.5,-205 830.5,-205 830.5,-249 830.5,-249 830.5,-255 824.5,-261 818.5,-261"/>
<text text-anchor="start" x="709.5" y="-245.8" font-family="Helvetica,sans-Serif" font-size="14.00">time ≤ 18.5</text>
<text text-anchor="start" x="707.5" y="-230.8" font-family="Helvetica,sans-Serif" font-size="14.00">gini = 0.463</text>
<text text-anchor="start" x="694" y="-215.8" font-family="Helvetica,sans-Serif" font-size="14.00">samples = 1901</text>
<text text-anchor="start" x="680.5" y="-200.8" font-family="Helvetica,sans-Serif" font-size="14.00">value = [1209, 692]</text>
</g>
<!-- 0&#45;&gt;8 -->
<g id="edge8" class="edge">
<title>0&#45;&gt;8</title>
<path fill="none" stroke="black" d="M617.11,-296.88C636.5,-286.95 657.91,-275.97 677.84,-265.76"/>
<polygon fill="black" stroke="black" points="679.57,-268.8 686.87,-261.12 676.38,-262.57 679.57,-268.8"/>
<text text-anchor="middle" x="679.21" y="-281.22" font-family="Helvetica,sans-Serif" font-size="14.00">False</text>
</g>
<!-- 2 -->
<g id="node3" class="node">
<title>2</title>
<path fill="#efb287" stroke="black" d="M322,-157C322,-157 179,-157 179,-157 173,-157 167,-151 167,-145 167,-145 167,-101 167,-101 167,-95 173,-89 179,-89 179,-89 322,-89 322,-89 328,-89 334,-95 334,-101 334,-101 334,-145 334,-145 334,-151 328,-157 322,-157"/>
<text text-anchor="start" x="180.5" y="-141.8" font-family="Helvetica,sans-Serif" font-size="14.00">num_borough ≤ 2.5</text>
<text text-anchor="start" x="206.5" y="-126.8" font-family="Helvetica,sans-Serif" font-size="14.00">gini = 0.404</text>
<text text-anchor="start" x="193" y="-111.8" font-family="Helvetica,sans-Serif" font-size="14.00">samples = 4222</text>
<text text-anchor="start" x="175" y="-96.8" font-family="Helvetica,sans-Serif" font-size="14.00">value = [3034, 1188]</text>
</g>
<!-- 1&#45;&gt;2 -->
<g id="edge2" class="edge">
<title>1&#45;&gt;2</title>
<path fill="none" stroke="black" d="M365.98,-192.88C349.62,-183.12 331.58,-172.37 314.73,-162.31"/>
<polygon fill="black" stroke="black" points="316.41,-159.24 306.03,-157.12 312.83,-165.25 316.41,-159.24"/>
</g>
<!-- 5 -->
<g id="node6" class="node">
<title>5</title>
<path fill="#7bbeee" stroke="black" d="M466,-157C466,-157 377,-157 377,-157 371,-157 365,-151 365,-145 365,-145 365,-101 365,-101 365,-95 371,-89 377,-89 377,-89 466,-89 466,-89 472,-89 478,-95 478,-101 478,-101 478,-145 478,-145 478,-151 472,-157 466,-157"/>
<text text-anchor="start" x="384" y="-141.8" font-family="Helvetica,sans-Serif" font-size="14.00">time ≤ 7.5</text>
<text text-anchor="start" x="377.5" y="-126.8" font-family="Helvetica,sans-Serif" font-size="14.00">gini = 0.375</text>
<text text-anchor="start" x="377.5" y="-111.8" font-family="Helvetica,sans-Serif" font-size="14.00">samples = 4</text>
<text text-anchor="start" x="373" y="-96.8" font-family="Helvetica,sans-Serif" font-size="14.00">value = [1, 3]</text>
</g>
<!-- 1&#45;&gt;5 -->
<g id="edge5" class="edge">
<title>1&#45;&gt;5</title>
<path fill="none" stroke="black" d="M421.5,-192.88C421.5,-184.78 421.5,-175.98 421.5,-167.47"/>
<polygon fill="black" stroke="black" points="425,-167.3 421.5,-157.3 418,-167.3 425,-167.3"/>
</g>
<!-- 3 -->
<g id="node4" class="node">
<title>3</title>
<path fill="#efb286" stroke="black" d="M155,-53C155,-53 12,-53 12,-53 6,-53 0,-47 0,-41 0,-41 0,-12 0,-12 0,-6 6,0 12,0 12,0 155,0 155,0 161,0 167,-6 167,-12 167,-12 167,-41 167,-41 167,-47 161,-53 155,-53"/>
<text text-anchor="start" x="39.5" y="-37.8" font-family="Helvetica,sans-Serif" font-size="14.00">gini = 0.403</text>
<text text-anchor="start" x="26" y="-22.8" font-family="Helvetica,sans-Serif" font-size="14.00">samples = 4110</text>
<text text-anchor="start" x="8" y="-7.8" font-family="Helvetica,sans-Serif" font-size="14.00">value = [2962, 1148]</text>
</g>
<!-- 2&#45;&gt;3 -->
<g id="edge3" class="edge">
<title>2&#45;&gt;3</title>
<path fill="none" stroke="black" d="M192.09,-88.95C174.39,-78.93 155.03,-67.98 137.62,-58.13"/>
<polygon fill="black" stroke="black" points="139.14,-54.97 128.72,-53.09 135.7,-61.06 139.14,-54.97"/>
</g>
<!-- 4 -->
<g id="node5" class="node">
<title>4</title>
<path fill="#f3c7a7" stroke="black" d="M304,-53C304,-53 197,-53 197,-53 191,-53 185,-47 185,-41 185,-41 185,-12 185,-12 185,-6 191,0 197,0 197,0 304,0 304,0 310,0 316,-6 316,-12 316,-12 316,-41 316,-41 316,-47 310,-53 304,-53"/>
<text text-anchor="start" x="206.5" y="-37.8" font-family="Helvetica,sans-Serif" font-size="14.00">gini = 0.459</text>
<text text-anchor="start" x="197.5" y="-22.8" font-family="Helvetica,sans-Serif" font-size="14.00">samples = 112</text>
<text text-anchor="start" x="193" y="-7.8" font-family="Helvetica,sans-Serif" font-size="14.00">value = [72, 40]</text>
</g>
<!-- 2&#45;&gt;4 -->
<g id="edge4" class="edge">
<title>2&#45;&gt;4</title>
<path fill="none" stroke="black" d="M250.5,-88.95C250.5,-80.72 250.5,-71.85 250.5,-63.48"/>
<polygon fill="black" stroke="black" points="254,-63.24 250.5,-53.24 247,-63.24 254,-63.24"/>
</g>
<!-- 6 -->
<g id="node7" class="node">
<title>6</title>
<path fill="#399de5" stroke="black" d="M435,-53C435,-53 346,-53 346,-53 340,-53 334,-47 334,-41 334,-41 334,-12 334,-12 334,-6 340,0 346,0 346,0 435,0 435,0 441,0 447,-6 447,-12 447,-12 447,-41 447,-41 447,-47 441,-53 435,-53"/>
<text text-anchor="start" x="355.5" y="-37.8" font-family="Helvetica,sans-Serif" font-size="14.00">gini = 0.0</text>
<text text-anchor="start" x="346.5" y="-22.8" font-family="Helvetica,sans-Serif" font-size="14.00">samples = 3</text>
<text text-anchor="start" x="342" y="-7.8" font-family="Helvetica,sans-Serif" font-size="14.00">value = [0, 3]</text>
</g>
<!-- 5&#45;&gt;6 -->
<g id="edge6" class="edge">
<title>5&#45;&gt;6</title>
<path fill="none" stroke="black" d="M410.66,-88.95C407.9,-80.53 404.92,-71.45 402.12,-62.92"/>
<polygon fill="black" stroke="black" points="405.39,-61.65 398.94,-53.24 398.73,-63.83 405.39,-61.65"/>
</g>
<!-- 7 -->
<g id="node8" class="node">
<title>7</title>
<path fill="#e58139" stroke="black" d="M566,-53C566,-53 477,-53 477,-53 471,-53 465,-47 465,-41 465,-41 465,-12 465,-12 465,-6 471,0 477,0 477,0 566,0 566,0 572,0 578,-6 578,-12 578,-12 578,-41 578,-41 578,-47 572,-53 566,-53"/>
<text text-anchor="start" x="486.5" y="-37.8" font-family="Helvetica,sans-Serif" font-size="14.00">gini = 0.0</text>
<text text-anchor="start" x="477.5" y="-22.8" font-family="Helvetica,sans-Serif" font-size="14.00">samples = 1</text>
<text text-anchor="start" x="473" y="-7.8" font-family="Helvetica,sans-Serif" font-size="14.00">value = [1, 0]</text>
</g>
<!-- 5&#45;&gt;7 -->
<g id="edge7" class="edge">
<title>5&#45;&gt;7</title>
<path fill="none" stroke="black" d="M456.48,-88.95C466.35,-79.62 477.09,-69.47 486.93,-60.16"/>
<polygon fill="black" stroke="black" points="489.4,-62.65 494.27,-53.24 484.59,-57.56 489.4,-62.65"/>
</g>
<!-- 9 -->
<g id="node10" class="node">
<title>9</title>
<path fill="#f6d3ba" stroke="black" d="M814,-157C814,-157 689,-157 689,-157 683,-157 677,-151 677,-145 677,-145 677,-101 677,-101 677,-95 683,-89 689,-89 689,-89 814,-89 814,-89 820,-89 826,-95 826,-101 826,-101 826,-145 826,-145 826,-151 820,-157 814,-157"/>
<text text-anchor="start" x="709.5" y="-141.8" font-family="Helvetica,sans-Serif" font-size="14.00">time ≤ 17.5</text>
<text text-anchor="start" x="707.5" y="-126.8" font-family="Helvetica,sans-Serif" font-size="14.00">gini = 0.478</text>
<text text-anchor="start" x="698.5" y="-111.8" font-family="Helvetica,sans-Serif" font-size="14.00">samples = 722</text>
<text text-anchor="start" x="685" y="-96.8" font-family="Helvetica,sans-Serif" font-size="14.00">value = [437, 285]</text>
</g>
<!-- 8&#45;&gt;9 -->
<g id="edge9" class="edge">
<title>8&#45;&gt;9</title>
<path fill="none" stroke="black" d="M751.5,-192.88C751.5,-184.78 751.5,-175.98 751.5,-167.47"/>
<polygon fill="black" stroke="black" points="755,-167.3 751.5,-157.3 748,-167.3 755,-167.3"/>
</g>
<!-- 12 -->
<g id="node13" class="node">
<title>12</title>
<path fill="#f3c3a1" stroke="black" d="M1070.5,-157C1070.5,-157 938.5,-157 938.5,-157 932.5,-157 926.5,-151 926.5,-145 926.5,-145 926.5,-101 926.5,-101 926.5,-95 932.5,-89 938.5,-89 938.5,-89 1070.5,-89 1070.5,-89 1076.5,-89 1082.5,-95 1082.5,-101 1082.5,-101 1082.5,-145 1082.5,-145 1082.5,-151 1076.5,-157 1070.5,-157"/>
<text text-anchor="start" x="934.5" y="-141.8" font-family="Helvetica,sans-Serif" font-size="14.00">num_borough ≤ 2.5</text>
<text text-anchor="start" x="960.5" y="-126.8" font-family="Helvetica,sans-Serif" font-size="14.00">gini = 0.452</text>
<text text-anchor="start" x="947" y="-111.8" font-family="Helvetica,sans-Serif" font-size="14.00">samples = 1179</text>
<text text-anchor="start" x="938" y="-96.8" font-family="Helvetica,sans-Serif" font-size="14.00">value = [772, 407]</text>
</g>
<!-- 8&#45;&gt;12 -->
<g id="edge12" class="edge">
<title>8&#45;&gt;12</title>
<path fill="none" stroke="black" d="M830.51,-194.15C857.86,-183.12 888.69,-170.69 916.7,-159.4"/>
<polygon fill="black" stroke="black" points="918.12,-162.6 926.09,-155.61 915.51,-156.11 918.12,-162.6"/>
</g>
<!-- 10 -->
<g id="node11" class="node">
<title>10</title>
<path fill="#f3c7a7" stroke="black" d="M733,-53C733,-53 608,-53 608,-53 602,-53 596,-47 596,-41 596,-41 596,-12 596,-12 596,-6 602,0 608,0 608,0 733,0 733,0 739,0 745,-6 745,-12 745,-12 745,-41 745,-41 745,-47 739,-53 733,-53"/>
<text text-anchor="start" x="626.5" y="-37.8" font-family="Helvetica,sans-Serif" font-size="14.00">gini = 0.459</text>
<text text-anchor="start" x="617.5" y="-22.8" font-family="Helvetica,sans-Serif" font-size="14.00">samples = 378</text>
<text text-anchor="start" x="604" y="-7.8" font-family="Helvetica,sans-Serif" font-size="14.00">value = [243, 135]</text>
</g>
<!-- 9&#45;&gt;10 -->
<g id="edge10" class="edge">
<title>9&#45;&gt;10</title>
<path fill="none" stroke="black" d="M723.17,-88.95C715.41,-79.89 706.99,-70.07 699.2,-60.99"/>
<polygon fill="black" stroke="black" points="701.73,-58.55 692.56,-53.24 696.41,-63.11 701.73,-58.55"/>
</g>
<!-- 11 -->
<g id="node12" class="node">
<title>11</title>
<path fill="#f9e2d2" stroke="black" d="M900,-53C900,-53 775,-53 775,-53 769,-53 763,-47 763,-41 763,-41 763,-12 763,-12 763,-6 769,0 775,0 775,0 900,0 900,0 906,0 912,-6 912,-12 912,-12 912,-41 912,-41 912,-47 906,-53 900,-53"/>
<text text-anchor="start" x="793.5" y="-37.8" font-family="Helvetica,sans-Serif" font-size="14.00">gini = 0.492</text>
<text text-anchor="start" x="784.5" y="-22.8" font-family="Helvetica,sans-Serif" font-size="14.00">samples = 344</text>
<text text-anchor="start" x="771" y="-7.8" font-family="Helvetica,sans-Serif" font-size="14.00">value = [194, 150]</text>
</g>
<!-- 9&#45;&gt;11 -->
<g id="edge11" class="edge">
<title>9&#45;&gt;11</title>
<path fill="none" stroke="black" d="M781.58,-88.95C789.9,-79.8 798.94,-69.87 807.27,-60.71"/>
<polygon fill="black" stroke="black" points="809.94,-62.99 814.08,-53.24 804.76,-58.28 809.94,-62.99"/>
</g>
<!-- 13 -->
<g id="node14" class="node">
<title>13</title>
<path fill="#f3c5a4" stroke="black" d="M1067,-53C1067,-53 942,-53 942,-53 936,-53 930,-47 930,-41 930,-41 930,-12 930,-12 930,-6 936,0 942,0 942,0 1067,0 1067,0 1073,0 1079,-6 1079,-12 1079,-12 1079,-41 1079,-41 1079,-47 1073,-53 1067,-53"/>
<text text-anchor="start" x="960.5" y="-37.8" font-family="Helvetica,sans-Serif" font-size="14.00">gini = 0.456</text>
<text text-anchor="start" x="947" y="-22.8" font-family="Helvetica,sans-Serif" font-size="14.00">samples = 1150</text>
<text text-anchor="start" x="938" y="-7.8" font-family="Helvetica,sans-Serif" font-size="14.00">value = [746, 404]</text>
</g>
<!-- 12&#45;&gt;13 -->
<g id="edge13" class="edge">
<title>12&#45;&gt;13</title>
<path fill="none" stroke="black" d="M1004.5,-88.95C1004.5,-80.72 1004.5,-71.85 1004.5,-63.48"/>
<polygon fill="black" stroke="black" points="1008,-63.24 1004.5,-53.24 1001,-63.24 1008,-63.24"/>
</g>
<!-- 14 -->
<g id="node15" class="node">
<title>14</title>
<path fill="#e89050" stroke="black" d="M1207.5,-53C1207.5,-53 1109.5,-53 1109.5,-53 1103.5,-53 1097.5,-47 1097.5,-41 1097.5,-41 1097.5,-12 1097.5,-12 1097.5,-6 1103.5,0 1109.5,0 1109.5,0 1207.5,0 1207.5,0 1213.5,0 1219.5,-6 1219.5,-12 1219.5,-12 1219.5,-41 1219.5,-41 1219.5,-47 1213.5,-53 1207.5,-53"/>
<text text-anchor="start" x="1114.5" y="-37.8" font-family="Helvetica,sans-Serif" font-size="14.00">gini = 0.185</text>
<text text-anchor="start" x="1110" y="-22.8" font-family="Helvetica,sans-Serif" font-size="14.00">samples = 29</text>
<text text-anchor="start" x="1105.5" y="-7.8" font-family="Helvetica,sans-Serif" font-size="14.00">value = [26, 3]</text>
</g>
<!-- 12&#45;&gt;14 -->
<g id="edge14" class="edge">
<title>12&#45;&gt;14</title>
<path fill="none" stroke="black" d="M1058.36,-88.95C1074.46,-79.07 1092.05,-68.28 1107.93,-58.53"/>
<polygon fill="black" stroke="black" points="1109.87,-61.45 1116.56,-53.24 1106.2,-55.48 1109.87,-61.45"/>
</g>
</g>
</svg>
