<?xml version="1.0" encoding="UTF-8" standalone="no"?>
<!DOCTYPE svg PUBLIC "-//W3C//DTD SVG 1.1//EN"
 "http://www.w3.org/Graphics/SVG/1.1/DTD/svg11.dtd">
<!-- Generated by graphviz version 2.43.0 (0)
 -->
<!-- Title: Tree Pages: 1 -->
<svg width="1240pt" height="790pt"
 viewBox="0.00 0.00 1239.50 790.00" xmlns="http://www.w3.org/2000/svg" xmlns:xlink="http://www.w3.org/1999/xlink">
<g id="graph0" class="graph" transform="scale(1 1) rotate(0) translate(4 786)">
<title>Tree</title>
<polygon fill="white" stroke="transparent" points="-4,4 -4,-786 1235.5,-786 1235.5,4 -4,4"/>
<!-- 0 -->
<g id="node1" class="node">
<title>0</title>
<path fill="#c1f7d7" stroke="black" d="M596.5,-782C596.5,-782 462.5,-782 462.5,-782 456.5,-782 450.5,-776 450.5,-770 450.5,-770 450.5,-711 450.5,-711 450.5,-705 456.5,-699 462.5,-699 462.5,-699 596.5,-699 596.5,-699 602.5,-699 608.5,-705 608.5,-711 608.5,-711 608.5,-770 608.5,-770 608.5,-776 602.5,-782 596.5,-782"/>
<text text-anchor="start" x="490" y="-766.8" font-family="Helvetica,sans-Serif" font-size="14.00">hue ≤ 0.75</text>
<text text-anchor="start" x="490" y="-751.8" font-family="Helvetica,sans-Serif" font-size="14.00">gini = 0.62</text>
<text text-anchor="start" x="476.5" y="-736.8" font-family="Helvetica,sans-Serif" font-size="14.00">samples = 117</text>
<text text-anchor="start" x="458.5" y="-721.8" font-family="Helvetica,sans-Serif" font-size="14.00">value = [48, 89, 41]</text>
<text text-anchor="start" x="476.5" y="-706.8" font-family="Helvetica,sans-Serif" font-size="14.00">class = class_1</text>
</g>
<!-- 1 -->
<g id="node2" class="node">
<title>1</title>
<path fill="#9457e9" stroke="black" d="M513.5,-663C513.5,-663 367.5,-663 367.5,-663 361.5,-663 355.5,-657 355.5,-651 355.5,-651 355.5,-592 355.5,-592 355.5,-586 361.5,-580 367.5,-580 367.5,-580 513.5,-580 513.5,-580 519.5,-580 525.5,-586 525.5,-592 525.5,-592 525.5,-651 525.5,-651 525.5,-657 519.5,-663 513.5,-663"/>
<text text-anchor="start" x="363.5" y="-647.8" font-family="Helvetica,sans-Serif" font-size="14.00">color_intensity ≤ 3.97</text>
<text text-anchor="start" x="401" y="-632.8" font-family="Helvetica,sans-Serif" font-size="14.00">gini = 0.23</text>
<text text-anchor="start" x="392" y="-617.8" font-family="Helvetica,sans-Serif" font-size="14.00">samples = 26</text>
<text text-anchor="start" x="378.5" y="-602.8" font-family="Helvetica,sans-Serif" font-size="14.00">value = [0, 5, 33]</text>
<text text-anchor="start" x="387.5" y="-587.8" font-family="Helvetica,sans-Serif" font-size="14.00">class = class_2</text>
</g>
<!-- 0&#45;&gt;1 -->
<g id="edge1" class="edge">
<title>0&#45;&gt;1</title>
<path fill="none" stroke="black" d="M498.62,-698.91C491.79,-689.92 484.48,-680.32 477.43,-671.05"/>
<polygon fill="black" stroke="black" points="480.16,-668.86 471.32,-663.02 474.59,-673.1 480.16,-668.86"/>
<text text-anchor="middle" x="467.96" y="-684.09" font-family="Helvetica,sans-Serif" font-size="14.00">True</text>
</g>
<!-- 4 -->
<g id="node5" class="node">
<title>4</title>
<path fill="#b2f5ce" stroke="black" d="M681,-663C681,-663 556,-663 556,-663 550,-663 544,-657 544,-651 544,-651 544,-592 544,-592 544,-586 550,-580 556,-580 556,-580 681,-580 681,-580 687,-580 693,-586 693,-592 693,-592 693,-651 693,-651 693,-657 687,-663 681,-663"/>
<text text-anchor="start" x="556.5" y="-647.8" font-family="Helvetica,sans-Serif" font-size="14.00">flavanoids ≤ 2.31</text>
<text text-anchor="start" x="579" y="-632.8" font-family="Helvetica,sans-Serif" font-size="14.00">gini = 0.52</text>
<text text-anchor="start" x="570" y="-617.8" font-family="Helvetica,sans-Serif" font-size="14.00">samples = 91</text>
<text text-anchor="start" x="552" y="-602.8" font-family="Helvetica,sans-Serif" font-size="14.00">value = [48, 84, 8]</text>
<text text-anchor="start" x="565.5" y="-587.8" font-family="Helvetica,sans-Serif" font-size="14.00">class = class_1</text>
</g>
<!-- 0&#45;&gt;4 -->
<g id="edge4" class="edge">
<title>0&#45;&gt;4</title>
<path fill="none" stroke="black" d="M560.38,-698.91C567.21,-689.92 574.52,-680.32 581.57,-671.05"/>
<polygon fill="black" stroke="black" points="584.41,-673.1 587.68,-663.02 578.84,-668.86 584.41,-673.1"/>
<text text-anchor="middle" x="591.04" y="-684.09" font-family="Helvetica,sans-Serif" font-size="14.00">False</text>
</g>
<!-- 2 -->
<g id="node3" class="node">
<title>2</title>
<path fill="#39e581" stroke="black" d="M345,-536.5C345,-536.5 238,-536.5 238,-536.5 232,-536.5 226,-530.5 226,-524.5 226,-524.5 226,-480.5 226,-480.5 226,-474.5 232,-468.5 238,-468.5 238,-468.5 345,-468.5 345,-468.5 351,-468.5 357,-474.5 357,-480.5 357,-480.5 357,-524.5 357,-524.5 357,-530.5 351,-536.5 345,-536.5"/>
<text text-anchor="start" x="256.5" y="-521.3" font-family="Helvetica,sans-Serif" font-size="14.00">gini = 0.0</text>
<text text-anchor="start" x="247.5" y="-506.3" font-family="Helvetica,sans-Serif" font-size="14.00">samples = 3</text>
<text text-anchor="start" x="234" y="-491.3" font-family="Helvetica,sans-Serif" font-size="14.00">value = [0, 5, 0]</text>
<text text-anchor="start" x="238.5" y="-476.3" font-family="Helvetica,sans-Serif" font-size="14.00">class = class_1</text>
</g>
<!-- 1&#45;&gt;2 -->
<g id="edge2" class="edge">
<title>1&#45;&gt;2</title>
<path fill="none" stroke="black" d="M388.81,-579.91C373.63,-567.99 357.05,-554.98 341.96,-543.12"/>
<polygon fill="black" stroke="black" points="343.76,-540.09 333.74,-536.67 339.44,-545.6 343.76,-540.09"/>
</g>
<!-- 3 -->
<g id="node4" class="node">
<title>3</title>
<path fill="#8139e5" stroke="black" d="M503.5,-536.5C503.5,-536.5 387.5,-536.5 387.5,-536.5 381.5,-536.5 375.5,-530.5 375.5,-524.5 375.5,-524.5 375.5,-480.5 375.5,-480.5 375.5,-474.5 381.5,-468.5 387.5,-468.5 387.5,-468.5 503.5,-468.5 503.5,-468.5 509.5,-468.5 515.5,-474.5 515.5,-480.5 515.5,-480.5 515.5,-524.5 515.5,-524.5 515.5,-530.5 509.5,-536.5 503.5,-536.5"/>
<text text-anchor="start" x="410.5" y="-521.3" font-family="Helvetica,sans-Serif" font-size="14.00">gini = 0.0</text>
<text text-anchor="start" x="397" y="-506.3" font-family="Helvetica,sans-Serif" font-size="14.00">samples = 23</text>
<text text-anchor="start" x="383.5" y="-491.3" font-family="Helvetica,sans-Serif" font-size="14.00">value = [0, 0, 33]</text>
<text text-anchor="start" x="392.5" y="-476.3" font-family="Helvetica,sans-Serif" font-size="14.00">class = class_2</text>
</g>
<!-- 1&#45;&gt;3 -->
<g id="edge3" class="edge">
<title>1&#45;&gt;3</title>
<path fill="none" stroke="black" d="M442.23,-579.91C442.69,-569.2 443.19,-557.62 443.65,-546.78"/>
<polygon fill="black" stroke="black" points="447.15,-546.81 444.08,-536.67 440.16,-546.51 447.15,-546.81"/>
</g>
<!-- 5 -->
<g id="node6" class="node">
<title>5</title>
<path fill="#59e995" stroke="black" d="M671.5,-544C671.5,-544 555.5,-544 555.5,-544 549.5,-544 543.5,-538 543.5,-532 543.5,-532 543.5,-473 543.5,-473 543.5,-467 549.5,-461 555.5,-461 555.5,-461 671.5,-461 671.5,-461 677.5,-461 683.5,-467 683.5,-473 683.5,-473 683.5,-532 683.5,-532 683.5,-538 677.5,-544 671.5,-544"/>
<text text-anchor="start" x="574" y="-528.8" font-family="Helvetica,sans-Serif" font-size="14.00">hue ≤ 0.89</text>
<text text-anchor="start" x="574" y="-513.8" font-family="Helvetica,sans-Serif" font-size="14.00">gini = 0.25</text>
<text text-anchor="start" x="565" y="-498.8" font-family="Helvetica,sans-Serif" font-size="14.00">samples = 47</text>
<text text-anchor="start" x="551.5" y="-483.8" font-family="Helvetica,sans-Serif" font-size="14.00">value = [2, 60, 8]</text>
<text text-anchor="start" x="560.5" y="-468.8" font-family="Helvetica,sans-Serif" font-size="14.00">class = class_1</text>
</g>
<!-- 4&#45;&gt;5 -->
<g id="edge5" class="edge">
<title>4&#45;&gt;5</title>
<path fill="none" stroke="black" d="M616.77,-579.91C616.41,-571.56 616.03,-562.67 615.66,-554.02"/>
<polygon fill="black" stroke="black" points="619.16,-553.86 615.23,-544.02 612.16,-554.16 619.16,-553.86"/>
</g>
<!-- 18 -->
<g id="node19" class="node">
<title>18</title>
<path fill="#f3c3a0" stroke="black" d="M878,-544C878,-544 753,-544 753,-544 747,-544 741,-538 741,-532 741,-532 741,-473 741,-473 741,-467 747,-461 753,-461 753,-461 878,-461 878,-461 884,-461 890,-467 890,-473 890,-473 890,-532 890,-532 890,-538 884,-544 878,-544"/>
<text text-anchor="start" x="761" y="-528.8" font-family="Helvetica,sans-Serif" font-size="14.00">proline ≤ 679.0</text>
<text text-anchor="start" x="776" y="-513.8" font-family="Helvetica,sans-Serif" font-size="14.00">gini = 0.45</text>
<text text-anchor="start" x="767" y="-498.8" font-family="Helvetica,sans-Serif" font-size="14.00">samples = 44</text>
<text text-anchor="start" x="749" y="-483.8" font-family="Helvetica,sans-Serif" font-size="14.00">value = [46, 24, 0]</text>
<text text-anchor="start" x="762.5" y="-468.8" font-family="Helvetica,sans-Serif" font-size="14.00">class = class_0</text>
</g>
<!-- 4&#45;&gt;18 -->
<g id="edge18" class="edge">
<title>4&#45;&gt;18</title>
<path fill="none" stroke="black" d="M686.85,-579.91C703.5,-570.02 721.43,-559.37 738.46,-549.25"/>
<polygon fill="black" stroke="black" points="740.46,-552.14 747.27,-544.02 736.89,-546.12 740.46,-552.14"/>
</g>
<!-- 6 -->
<g id="node7" class="node">
<title>6</title>
<path fill="#e9fcf1" stroke="black" d="M477.5,-425C477.5,-425 217.5,-425 217.5,-425 211.5,-425 205.5,-419 205.5,-413 205.5,-413 205.5,-354 205.5,-354 205.5,-348 211.5,-342 217.5,-342 217.5,-342 477.5,-342 477.5,-342 483.5,-342 489.5,-348 489.5,-354 489.5,-354 489.5,-413 489.5,-413 489.5,-419 483.5,-425 477.5,-425"/>
<text text-anchor="start" x="213.5" y="-409.8" font-family="Helvetica,sans-Serif" font-size="14.00">od280/od315_of_diluted_wines ≤ 2.37</text>
<text text-anchor="start" x="312.5" y="-394.8" font-family="Helvetica,sans-Serif" font-size="14.00">gini = 0.5</text>
<text text-anchor="start" x="299" y="-379.8" font-family="Helvetica,sans-Serif" font-size="14.00">samples = 14</text>
<text text-anchor="start" x="290" y="-364.8" font-family="Helvetica,sans-Serif" font-size="14.00">value = [0, 9, 8]</text>
<text text-anchor="start" x="294.5" y="-349.8" font-family="Helvetica,sans-Serif" font-size="14.00">class = class_1</text>
</g>
<!-- 5&#45;&gt;6 -->
<g id="edge6" class="edge">
<title>5&#45;&gt;6</title>
<path fill="none" stroke="black" d="M543.11,-469.32C536.83,-466.49 530.55,-463.68 524.5,-461 501,-450.57 475.66,-439.52 451.72,-429.15"/>
<polygon fill="black" stroke="black" points="452.83,-425.82 442.26,-425.06 450.05,-432.24 452.83,-425.82"/>
</g>
<!-- 13 -->
<g id="node14" class="node">
<title>13</title>
<path fill="#41e686" stroke="black" d="M697,-425C697,-425 530,-425 530,-425 524,-425 518,-419 518,-413 518,-413 518,-354 518,-354 518,-348 524,-342 530,-342 530,-342 697,-342 697,-342 703,-342 709,-348 709,-354 709,-354 709,-413 709,-413 709,-419 703,-425 697,-425"/>
<text text-anchor="start" x="526" y="-409.8" font-family="Helvetica,sans-Serif" font-size="14.00">alcalinity_of_ash ≤ 17.25</text>
<text text-anchor="start" x="574" y="-394.8" font-family="Helvetica,sans-Serif" font-size="14.00">gini = 0.07</text>
<text text-anchor="start" x="565" y="-379.8" font-family="Helvetica,sans-Serif" font-size="14.00">samples = 33</text>
<text text-anchor="start" x="551.5" y="-364.8" font-family="Helvetica,sans-Serif" font-size="14.00">value = [2, 51, 0]</text>
<text text-anchor="start" x="560.5" y="-349.8" font-family="Helvetica,sans-Serif" font-size="14.00">class = class_1</text>
</g>
<!-- 5&#45;&gt;13 -->
<g id="edge13" class="edge">
<title>5&#45;&gt;13</title>
<path fill="none" stroke="black" d="M613.5,-460.91C613.5,-452.65 613.5,-443.86 613.5,-435.3"/>
<polygon fill="black" stroke="black" points="617,-435.02 613.5,-425.02 610,-435.02 617,-435.02"/>
</g>
<!-- 7 -->
<g id="node8" class="node">
<title>7</title>
<path fill="#9152e8" stroke="black" d="M252,-306C252,-306 55,-306 55,-306 49,-306 43,-300 43,-294 43,-294 43,-235 43,-235 43,-229 49,-223 55,-223 55,-223 252,-223 252,-223 258,-223 264,-229 264,-235 264,-235 264,-294 264,-294 264,-300 258,-306 252,-306"/>
<text text-anchor="start" x="51" y="-290.8" font-family="Helvetica,sans-Serif" font-size="14.00">nonflavanoid_phenols ≤ 0.61</text>
<text text-anchor="start" x="118.5" y="-275.8" font-family="Helvetica,sans-Serif" font-size="14.00">gini = 0.2</text>
<text text-anchor="start" x="109.5" y="-260.8" font-family="Helvetica,sans-Serif" font-size="14.00">samples = 9</text>
<text text-anchor="start" x="96" y="-245.8" font-family="Helvetica,sans-Serif" font-size="14.00">value = [0, 1, 8]</text>
<text text-anchor="start" x="100.5" y="-230.8" font-family="Helvetica,sans-Serif" font-size="14.00">class = class_2</text>
</g>
<!-- 6&#45;&gt;7 -->
<g id="edge7" class="edge">
<title>6&#45;&gt;7</title>
<path fill="none" stroke="black" d="M280.19,-341.91C263.79,-332.02 246.14,-321.37 229.37,-311.25"/>
<polygon fill="black" stroke="black" points="231.06,-308.19 220.69,-306.02 227.44,-314.18 231.06,-308.19"/>
</g>
<!-- 12 -->
<g id="node13" class="node">
<title>12</title>
<path fill="#39e581" stroke="black" d="M401,-298.5C401,-298.5 294,-298.5 294,-298.5 288,-298.5 282,-292.5 282,-286.5 282,-286.5 282,-242.5 282,-242.5 282,-236.5 288,-230.5 294,-230.5 294,-230.5 401,-230.5 401,-230.5 407,-230.5 413,-236.5 413,-242.5 413,-242.5 413,-286.5 413,-286.5 413,-292.5 407,-298.5 401,-298.5"/>
<text text-anchor="start" x="312.5" y="-283.3" font-family="Helvetica,sans-Serif" font-size="14.00">gini = 0.0</text>
<text text-anchor="start" x="303.5" y="-268.3" font-family="Helvetica,sans-Serif" font-size="14.00">samples = 5</text>
<text text-anchor="start" x="290" y="-253.3" font-family="Helvetica,sans-Serif" font-size="14.00">value = [0, 8, 0]</text>
<text text-anchor="start" x="294.5" y="-238.3" font-family="Helvetica,sans-Serif" font-size="14.00">class = class_1</text>
</g>
<!-- 6&#45;&gt;12 -->
<g id="edge12" class="edge">
<title>6&#45;&gt;12</title>
<path fill="none" stroke="black" d="M347.5,-341.91C347.5,-331.2 347.5,-319.62 347.5,-308.78"/>
<polygon fill="black" stroke="black" points="351,-308.67 347.5,-298.67 344,-308.67 351,-308.67"/>
</g>
<!-- 8 -->
<g id="node9" class="node">
<title>8</title>
<path fill="#8139e5" stroke="black" d="M119,-179.5C119,-179.5 12,-179.5 12,-179.5 6,-179.5 0,-173.5 0,-167.5 0,-167.5 0,-123.5 0,-123.5 0,-117.5 6,-111.5 12,-111.5 12,-111.5 119,-111.5 119,-111.5 125,-111.5 131,-117.5 131,-123.5 131,-123.5 131,-167.5 131,-167.5 131,-173.5 125,-179.5 119,-179.5"/>
<text text-anchor="start" x="30.5" y="-164.3" font-family="Helvetica,sans-Serif" font-size="14.00">gini = 0.0</text>
<text text-anchor="start" x="21.5" y="-149.3" font-family="Helvetica,sans-Serif" font-size="14.00">samples = 7</text>
<text text-anchor="start" x="8" y="-134.3" font-family="Helvetica,sans-Serif" font-size="14.00">value = [0, 0, 7]</text>
<text text-anchor="start" x="12.5" y="-119.3" font-family="Helvetica,sans-Serif" font-size="14.00">class = class_2</text>
</g>
<!-- 7&#45;&gt;8 -->
<g id="edge8" class="edge">
<title>7&#45;&gt;8</title>
<path fill="none" stroke="black" d="M122.97,-222.91C114.42,-211.54 105.12,-199.18 96.54,-187.77"/>
<polygon fill="black" stroke="black" points="99.25,-185.55 90.45,-179.67 93.66,-189.76 99.25,-185.55"/>
</g>
<!-- 9 -->
<g id="node10" class="node">
<title>9</title>
<path fill="#ffffff" stroke="black" d="M322,-187C322,-187 161,-187 161,-187 155,-187 149,-181 149,-175 149,-175 149,-116 149,-116 149,-110 155,-104 161,-104 161,-104 322,-104 322,-104 328,-104 334,-110 334,-116 334,-116 334,-175 334,-175 334,-181 328,-187 322,-187"/>
<text text-anchor="start" x="157" y="-171.8" font-family="Helvetica,sans-Serif" font-size="14.00">proanthocyanins ≤ 1.36</text>
<text text-anchor="start" x="206.5" y="-156.8" font-family="Helvetica,sans-Serif" font-size="14.00">gini = 0.5</text>
<text text-anchor="start" x="197.5" y="-141.8" font-family="Helvetica,sans-Serif" font-size="14.00">samples = 2</text>
<text text-anchor="start" x="184" y="-126.8" font-family="Helvetica,sans-Serif" font-size="14.00">value = [0, 1, 1]</text>
<text text-anchor="start" x="188.5" y="-111.8" font-family="Helvetica,sans-Serif" font-size="14.00">class = class_1</text>
</g>
<!-- 7&#45;&gt;9 -->
<g id="edge9" class="edge">
<title>7&#45;&gt;9</title>
<path fill="none" stroke="black" d="M184.03,-222.91C190.79,-213.92 198.02,-204.32 204.98,-195.05"/>
<polygon fill="black" stroke="black" points="207.81,-197.12 211.02,-187.02 202.21,-192.91 207.81,-197.12"/>
</g>
<!-- 10 -->
<g id="node11" class="node">
<title>10</title>
<path fill="#8139e5" stroke="black" d="M221,-68C221,-68 114,-68 114,-68 108,-68 102,-62 102,-56 102,-56 102,-12 102,-12 102,-6 108,0 114,0 114,0 221,0 221,0 227,0 233,-6 233,-12 233,-12 233,-56 233,-56 233,-62 227,-68 221,-68"/>
<text text-anchor="start" x="132.5" y="-52.8" font-family="Helvetica,sans-Serif" font-size="14.00">gini = 0.0</text>
<text text-anchor="start" x="123.5" y="-37.8" font-family="Helvetica,sans-Serif" font-size="14.00">samples = 1</text>
<text text-anchor="start" x="110" y="-22.8" font-family="Helvetica,sans-Serif" font-size="14.00">value = [0, 0, 1]</text>
<text text-anchor="start" x="114.5" y="-7.8" font-family="Helvetica,sans-Serif" font-size="14.00">class = class_2</text>
</g>
<!-- 9&#45;&gt;10 -->
<g id="edge10" class="edge">
<title>9&#45;&gt;10</title>
<path fill="none" stroke="black" d="M213.95,-103.73C207.97,-94.88 201.63,-85.51 195.63,-76.63"/>
<polygon fill="black" stroke="black" points="198.5,-74.63 190,-68.3 192.7,-78.54 198.5,-74.63"/>
</g>
<!-- 11 -->
<g id="node12" class="node">
<title>11</title>
<path fill="#39e581" stroke="black" d="M370,-68C370,-68 263,-68 263,-68 257,-68 251,-62 251,-56 251,-56 251,-12 251,-12 251,-6 257,0 263,0 263,0 370,0 370,0 376,0 382,-6 382,-12 382,-12 382,-56 382,-56 382,-62 376,-68 370,-68"/>
<text text-anchor="start" x="281.5" y="-52.8" font-family="Helvetica,sans-Serif" font-size="14.00">gini = 0.0</text>
<text text-anchor="start" x="272.5" y="-37.8" font-family="Helvetica,sans-Serif" font-size="14.00">samples = 1</text>
<text text-anchor="start" x="259" y="-22.8" font-family="Helvetica,sans-Serif" font-size="14.00">value = [0, 1, 0]</text>
<text text-anchor="start" x="263.5" y="-7.8" font-family="Helvetica,sans-Serif" font-size="14.00">class = class_1</text>
</g>
<!-- 9&#45;&gt;11 -->
<g id="edge11" class="edge">
<title>9&#45;&gt;11</title>
<path fill="none" stroke="black" d="M269.43,-103.73C275.49,-94.88 281.9,-85.51 287.99,-76.63"/>
<polygon fill="black" stroke="black" points="290.93,-78.53 293.69,-68.3 285.15,-74.57 290.93,-78.53"/>
</g>
<!-- 14 -->
<g id="node15" class="node">
<title>14</title>
<path fill="#61ea9a" stroke="black" d="M703.5,-306C703.5,-306 443.5,-306 443.5,-306 437.5,-306 431.5,-300 431.5,-294 431.5,-294 431.5,-235 431.5,-235 431.5,-229 437.5,-223 443.5,-223 443.5,-223 703.5,-223 703.5,-223 709.5,-223 715.5,-229 715.5,-235 715.5,-235 715.5,-294 715.5,-294 715.5,-300 709.5,-306 703.5,-306"/>
<text text-anchor="start" x="439.5" y="-290.8" font-family="Helvetica,sans-Serif" font-size="14.00">od280/od315_of_diluted_wines ≤ 2.62</text>
<text text-anchor="start" x="534" y="-275.8" font-family="Helvetica,sans-Serif" font-size="14.00">gini = 0.28</text>
<text text-anchor="start" x="529.5" y="-260.8" font-family="Helvetica,sans-Serif" font-size="14.00">samples = 7</text>
<text text-anchor="start" x="511.5" y="-245.8" font-family="Helvetica,sans-Serif" font-size="14.00">value = [2, 10, 0]</text>
<text text-anchor="start" x="520.5" y="-230.8" font-family="Helvetica,sans-Serif" font-size="14.00">class = class_1</text>
</g>
<!-- 13&#45;&gt;14 -->
<g id="edge14" class="edge">
<title>13&#45;&gt;14</title>
<path fill="none" stroke="black" d="M599.62,-341.91C596.74,-333.47 593.66,-324.48 590.68,-315.74"/>
<polygon fill="black" stroke="black" points="593.9,-314.35 587.35,-306.02 587.28,-316.62 593.9,-314.35"/>
</g>
<!-- 17 -->
<g id="node18" class="node">
<title>17</title>
<path fill="#39e581" stroke="black" d="M861.5,-298.5C861.5,-298.5 745.5,-298.5 745.5,-298.5 739.5,-298.5 733.5,-292.5 733.5,-286.5 733.5,-286.5 733.5,-242.5 733.5,-242.5 733.5,-236.5 739.5,-230.5 745.5,-230.5 745.5,-230.5 861.5,-230.5 861.5,-230.5 867.5,-230.5 873.5,-236.5 873.5,-242.5 873.5,-242.5 873.5,-286.5 873.5,-286.5 873.5,-292.5 867.5,-298.5 861.5,-298.5"/>
<text text-anchor="start" x="768.5" y="-283.3" font-family="Helvetica,sans-Serif" font-size="14.00">gini = 0.0</text>
<text text-anchor="start" x="755" y="-268.3" font-family="Helvetica,sans-Serif" font-size="14.00">samples = 26</text>
<text text-anchor="start" x="741.5" y="-253.3" font-family="Helvetica,sans-Serif" font-size="14.00">value = [0, 41, 0]</text>
<text text-anchor="start" x="750.5" y="-238.3" font-family="Helvetica,sans-Serif" font-size="14.00">class = class_1</text>
</g>
<!-- 13&#45;&gt;17 -->
<g id="edge17" class="edge">
<title>13&#45;&gt;17</title>
<path fill="none" stroke="black" d="M679.42,-341.91C699.4,-329.6 721.28,-316.13 741.03,-303.97"/>
<polygon fill="black" stroke="black" points="742.96,-306.89 749.64,-298.67 739.29,-300.93 742.96,-306.89"/>
</g>
<!-- 15 -->
<g id="node16" class="node">
<title>15</title>
<path fill="#39e581" stroke="black" d="M582.5,-179.5C582.5,-179.5 466.5,-179.5 466.5,-179.5 460.5,-179.5 454.5,-173.5 454.5,-167.5 454.5,-167.5 454.5,-123.5 454.5,-123.5 454.5,-117.5 460.5,-111.5 466.5,-111.5 466.5,-111.5 582.5,-111.5 582.5,-111.5 588.5,-111.5 594.5,-117.5 594.5,-123.5 594.5,-123.5 594.5,-167.5 594.5,-167.5 594.5,-173.5 588.5,-179.5 582.5,-179.5"/>
<text text-anchor="start" x="489.5" y="-164.3" font-family="Helvetica,sans-Serif" font-size="14.00">gini = 0.0</text>
<text text-anchor="start" x="480.5" y="-149.3" font-family="Helvetica,sans-Serif" font-size="14.00">samples = 6</text>
<text text-anchor="start" x="462.5" y="-134.3" font-family="Helvetica,sans-Serif" font-size="14.00">value = [0, 10, 0]</text>
<text text-anchor="start" x="471.5" y="-119.3" font-family="Helvetica,sans-Serif" font-size="14.00">class = class_1</text>
</g>
<!-- 14&#45;&gt;15 -->
<g id="edge15" class="edge">
<title>14&#45;&gt;15</title>
<path fill="none" stroke="black" d="M556.5,-222.91C551.92,-211.98 546.96,-200.14 542.34,-189.11"/>
<polygon fill="black" stroke="black" points="545.48,-187.54 538.39,-179.67 539.03,-190.24 545.48,-187.54"/>
</g>
<!-- 16 -->
<g id="node17" class="node">
<title>16</title>
<path fill="#e58139" stroke="black" d="M732,-179.5C732,-179.5 625,-179.5 625,-179.5 619,-179.5 613,-173.5 613,-167.5 613,-167.5 613,-123.5 613,-123.5 613,-117.5 619,-111.5 625,-111.5 625,-111.5 732,-111.5 732,-111.5 738,-111.5 744,-117.5 744,-123.5 744,-123.5 744,-167.5 744,-167.5 744,-173.5 738,-179.5 732,-179.5"/>
<text text-anchor="start" x="643.5" y="-164.3" font-family="Helvetica,sans-Serif" font-size="14.00">gini = 0.0</text>
<text text-anchor="start" x="634.5" y="-149.3" font-family="Helvetica,sans-Serif" font-size="14.00">samples = 1</text>
<text text-anchor="start" x="621" y="-134.3" font-family="Helvetica,sans-Serif" font-size="14.00">value = [2, 0, 0]</text>
<text text-anchor="start" x="625.5" y="-119.3" font-family="Helvetica,sans-Serif" font-size="14.00">class = class_0</text>
</g>
<!-- 14&#45;&gt;16 -->
<g id="edge16" class="edge">
<title>14&#45;&gt;16</title>
<path fill="none" stroke="black" d="M609.93,-222.91C620.33,-211.32 631.66,-198.7 642.05,-187.11"/>
<polygon fill="black" stroke="black" points="644.66,-189.45 648.73,-179.67 639.45,-184.77 644.66,-189.45"/>
</g>
<!-- 19 -->
<g id="node20" class="node">
<title>19</title>
<path fill="#39e581" stroke="black" d="M873.5,-417.5C873.5,-417.5 757.5,-417.5 757.5,-417.5 751.5,-417.5 745.5,-411.5 745.5,-405.5 745.5,-405.5 745.5,-361.5 745.5,-361.5 745.5,-355.5 751.5,-349.5 757.5,-349.5 757.5,-349.5 873.5,-349.5 873.5,-349.5 879.5,-349.5 885.5,-355.5 885.5,-361.5 885.5,-361.5 885.5,-405.5 885.5,-405.5 885.5,-411.5 879.5,-417.5 873.5,-417.5"/>
<text text-anchor="start" x="780.5" y="-402.3" font-family="Helvetica,sans-Serif" font-size="14.00">gini = 0.0</text>
<text text-anchor="start" x="767" y="-387.3" font-family="Helvetica,sans-Serif" font-size="14.00">samples = 10</text>
<text text-anchor="start" x="753.5" y="-372.3" font-family="Helvetica,sans-Serif" font-size="14.00">value = [0, 19, 0]</text>
<text text-anchor="start" x="762.5" y="-357.3" font-family="Helvetica,sans-Serif" font-size="14.00">class = class_1</text>
</g>
<!-- 18&#45;&gt;19 -->
<g id="edge19" class="edge">
<title>18&#45;&gt;19</title>
<path fill="none" stroke="black" d="M815.5,-460.91C815.5,-450.2 815.5,-438.62 815.5,-427.78"/>
<polygon fill="black" stroke="black" points="819,-427.67 815.5,-417.67 812,-427.67 819,-427.67"/>
</g>
<!-- 20 -->
<g id="node21" class="node">
<title>20</title>
<path fill="#e88f4f" stroke="black" d="M1040.5,-425C1040.5,-425 924.5,-425 924.5,-425 918.5,-425 912.5,-419 912.5,-413 912.5,-413 912.5,-354 912.5,-354 912.5,-348 918.5,-342 924.5,-342 924.5,-342 1040.5,-342 1040.5,-342 1046.5,-342 1052.5,-348 1052.5,-354 1052.5,-354 1052.5,-413 1052.5,-413 1052.5,-419 1046.5,-425 1040.5,-425"/>
<text text-anchor="start" x="927" y="-409.8" font-family="Helvetica,sans-Serif" font-size="14.00">alcohol ≤ 13.02</text>
<text text-anchor="start" x="943" y="-394.8" font-family="Helvetica,sans-Serif" font-size="14.00">gini = 0.18</text>
<text text-anchor="start" x="934" y="-379.8" font-family="Helvetica,sans-Serif" font-size="14.00">samples = 34</text>
<text text-anchor="start" x="920.5" y="-364.8" font-family="Helvetica,sans-Serif" font-size="14.00">value = [46, 5, 0]</text>
<text text-anchor="start" x="929.5" y="-349.8" font-family="Helvetica,sans-Serif" font-size="14.00">class = class_0</text>
</g>
<!-- 18&#45;&gt;20 -->
<g id="edge20" class="edge">
<title>18&#45;&gt;20</title>
<path fill="none" stroke="black" d="M873.44,-460.91C887.3,-451.2 902.2,-440.76 916.4,-430.81"/>
<polygon fill="black" stroke="black" points="918.48,-433.63 924.66,-425.02 914.46,-427.89 918.48,-433.63"/>
</g>
<!-- 21 -->
<g id="node22" class="node">
<title>21</title>
<path fill="#88efb3" stroke="black" d="M1061.5,-306C1061.5,-306 903.5,-306 903.5,-306 897.5,-306 891.5,-300 891.5,-294 891.5,-294 891.5,-235 891.5,-235 891.5,-229 897.5,-223 903.5,-223 903.5,-223 1061.5,-223 1061.5,-223 1067.5,-223 1073.5,-229 1073.5,-235 1073.5,-235 1073.5,-294 1073.5,-294 1073.5,-300 1067.5,-306 1061.5,-306"/>
<text text-anchor="start" x="899.5" y="-290.8" font-family="Helvetica,sans-Serif" font-size="14.00">alcalinity_of_ash ≤ 18.7</text>
<text text-anchor="start" x="943" y="-275.8" font-family="Helvetica,sans-Serif" font-size="14.00">gini = 0.41</text>
<text text-anchor="start" x="938.5" y="-260.8" font-family="Helvetica,sans-Serif" font-size="14.00">samples = 4</text>
<text text-anchor="start" x="925" y="-245.8" font-family="Helvetica,sans-Serif" font-size="14.00">value = [2, 5, 0]</text>
<text text-anchor="start" x="929.5" y="-230.8" font-family="Helvetica,sans-Serif" font-size="14.00">class = class_1</text>
</g>
<!-- 20&#45;&gt;21 -->
<g id="edge21" class="edge">
<title>20&#45;&gt;21</title>
<path fill="none" stroke="black" d="M982.5,-341.91C982.5,-333.65 982.5,-324.86 982.5,-316.3"/>
<polygon fill="black" stroke="black" points="986,-316.02 982.5,-306.02 979,-316.02 986,-316.02"/>
</g>
<!-- 24 -->
<g id="node25" class="node">
<title>24</title>
<path fill="#e58139" stroke="black" d="M1219.5,-298.5C1219.5,-298.5 1103.5,-298.5 1103.5,-298.5 1097.5,-298.5 1091.5,-292.5 1091.5,-286.5 1091.5,-286.5 1091.5,-242.5 1091.5,-242.5 1091.5,-236.5 1097.5,-230.5 1103.5,-230.5 1103.5,-230.5 1219.5,-230.5 1219.5,-230.5 1225.5,-230.5 1231.5,-236.5 1231.5,-242.5 1231.5,-242.5 1231.5,-286.5 1231.5,-286.5 1231.5,-292.5 1225.5,-298.5 1219.5,-298.5"/>
<text text-anchor="start" x="1126.5" y="-283.3" font-family="Helvetica,sans-Serif" font-size="14.00">gini = 0.0</text>
<text text-anchor="start" x="1113" y="-268.3" font-family="Helvetica,sans-Serif" font-size="14.00">samples = 30</text>
<text text-anchor="start" x="1099.5" y="-253.3" font-family="Helvetica,sans-Serif" font-size="14.00">value = [44, 0, 0]</text>
<text text-anchor="start" x="1108.5" y="-238.3" font-family="Helvetica,sans-Serif" font-size="14.00">class = class_0</text>
</g>
<!-- 20&#45;&gt;24 -->
<g id="edge24" class="edge">
<title>20&#45;&gt;24</title>
<path fill="none" stroke="black" d="M1044.6,-341.91C1063.26,-329.71 1083.67,-316.37 1102.14,-304.3"/>
<polygon fill="black" stroke="black" points="1104.3,-307.07 1110.76,-298.67 1100.47,-301.21 1104.3,-307.07"/>
</g>
<!-- 22 -->
<g id="node23" class="node">
<title>22</title>
<path fill="#e58139" stroke="black" d="M935,-179.5C935,-179.5 828,-179.5 828,-179.5 822,-179.5 816,-173.5 816,-167.5 816,-167.5 816,-123.5 816,-123.5 816,-117.5 822,-111.5 828,-111.5 828,-111.5 935,-111.5 935,-111.5 941,-111.5 947,-117.5 947,-123.5 947,-123.5 947,-167.5 947,-167.5 947,-173.5 941,-179.5 935,-179.5"/>
<text text-anchor="start" x="846.5" y="-164.3" font-family="Helvetica,sans-Serif" font-size="14.00">gini = 0.0</text>
<text text-anchor="start" x="837.5" y="-149.3" font-family="Helvetica,sans-Serif" font-size="14.00">samples = 2</text>
<text text-anchor="start" x="824" y="-134.3" font-family="Helvetica,sans-Serif" font-size="14.00">value = [2, 0, 0]</text>
<text text-anchor="start" x="828.5" y="-119.3" font-family="Helvetica,sans-Serif" font-size="14.00">class = class_0</text>
</g>
<!-- 21&#45;&gt;22 -->
<g id="edge22" class="edge">
<title>21&#45;&gt;22</title>
<path fill="none" stroke="black" d="M947.46,-222.91C937.55,-211.43 926.77,-198.94 916.84,-187.44"/>
<polygon fill="black" stroke="black" points="919.32,-184.95 910.13,-179.67 914.02,-189.52 919.32,-184.95"/>
</g>
<!-- 23 -->
<g id="node24" class="node">
<title>23</title>
<path fill="#39e581" stroke="black" d="M1084,-179.5C1084,-179.5 977,-179.5 977,-179.5 971,-179.5 965,-173.5 965,-167.5 965,-167.5 965,-123.5 965,-123.5 965,-117.5 971,-111.5 977,-111.5 977,-111.5 1084,-111.5 1084,-111.5 1090,-111.5 1096,-117.5 1096,-123.5 1096,-123.5 1096,-167.5 1096,-167.5 1096,-173.5 1090,-179.5 1084,-179.5"/>
<text text-anchor="start" x="995.5" y="-164.3" font-family="Helvetica,sans-Serif" font-size="14.00">gini = 0.0</text>
<text text-anchor="start" x="986.5" y="-149.3" font-family="Helvetica,sans-Serif" font-size="14.00">samples = 2</text>
<text text-anchor="start" x="973" y="-134.3" font-family="Helvetica,sans-Serif" font-size="14.00">value = [0, 5, 0]</text>
<text text-anchor="start" x="977.5" y="-119.3" font-family="Helvetica,sans-Serif" font-size="14.00">class = class_1</text>
</g>
<!-- 21&#45;&gt;23 -->
<g id="edge23" class="edge">
<title>21&#45;&gt;23</title>
<path fill="none" stroke="black" d="M999.15,-222.91C1003.64,-211.98 1008.5,-200.14 1013.02,-189.11"/>
<polygon fill="black" stroke="black" points="1016.34,-190.25 1016.89,-179.67 1009.86,-187.59 1016.34,-190.25"/>
</g>
</g>
</svg>
