<?xml version="1.0" encoding="UTF-8" standalone="no"?>
<!DOCTYPE svg PUBLIC "-//W3C//DTD SVG 1.1//EN"
 "http://www.w3.org/Graphics/SVG/1.1/DTD/svg11.dtd">
<!-- Generated by graphviz version 2.43.0 (0)
 -->
<!-- Title: Tree Pages: 1 -->
<svg width="2556pt" height="477pt"
 viewBox="0.00 0.00 2556.00 477.00" xmlns="http://www.w3.org/2000/svg" xmlns:xlink="http://www.w3.org/1999/xlink">
<g id="graph0" class="graph" transform="scale(1 1) rotate(0) translate(4 473)">
<title>Tree</title>
<polygon fill="white" stroke="transparent" points="-4,4 -4,-473 2552,-473 2552,4 -4,4"/>
<!-- 0 -->
<g id="node1" class="node">
<title>0</title>
<path fill="#f9e4d4" stroke="black" d="M1529.5,-469C1529.5,-469 1333.5,-469 1333.5,-469 1327.5,-469 1321.5,-463 1321.5,-457 1321.5,-457 1321.5,-413 1321.5,-413 1321.5,-407 1327.5,-401 1333.5,-401 1333.5,-401 1529.5,-401 1529.5,-401 1535.5,-401 1541.5,-407 1541.5,-413 1541.5,-413 1541.5,-457 1541.5,-457 1541.5,-463 1535.5,-469 1529.5,-469"/>
<text text-anchor="start" x="1329.5" y="-453.8" font-family="Helvetica,sans-Serif" font-size="14.00">num_vehicles_involved ≤ 4.5</text>
<text text-anchor="start" x="1361.5" y="-438.8" font-family="Helvetica,sans-Serif" font-size="14.00">squared_error = 0.5</text>
<text text-anchor="start" x="1374" y="-423.8" font-family="Helvetica,sans-Serif" font-size="14.00">samples = 3853</text>
<text text-anchor="start" x="1390.5" y="-408.8" font-family="Helvetica,sans-Serif" font-size="14.00">value = 0.4</text>
</g>
<!-- 1 -->
<g id="node2" class="node">
<title>1</title>
<path fill="#f9e4d5" stroke="black" d="M1158,-365C1158,-365 1017,-365 1017,-365 1011,-365 1005,-359 1005,-353 1005,-353 1005,-309 1005,-309 1005,-303 1011,-297 1017,-297 1017,-297 1158,-297 1158,-297 1164,-297 1170,-303 1170,-309 1170,-309 1170,-353 1170,-353 1170,-359 1164,-365 1158,-365"/>
<text text-anchor="start" x="1021.5" y="-349.8" font-family="Helvetica,sans-Serif" font-size="14.00">timeframe_4 ≤ 0.5</text>
<text text-anchor="start" x="1013" y="-334.8" font-family="Helvetica,sans-Serif" font-size="14.00">squared_error = 0.47</text>
<text text-anchor="start" x="1030" y="-319.8" font-family="Helvetica,sans-Serif" font-size="14.00">samples = 3813</text>
<text text-anchor="start" x="1046.5" y="-304.8" font-family="Helvetica,sans-Serif" font-size="14.00">value = 0.4</text>
</g>
<!-- 0&#45;&gt;1 -->
<g id="edge1" class="edge">
<title>0&#45;&gt;1</title>
<path fill="none" stroke="black" d="M1321.24,-401.31C1275.65,-387.79 1223.4,-372.3 1179.87,-359.39"/>
<polygon fill="black" stroke="black" points="1180.74,-355.99 1170.15,-356.51 1178.75,-362.71 1180.74,-355.99"/>
<text text-anchor="middle" x="1182.08" y="-374.78" font-family="Helvetica,sans-Serif" font-size="14.00">True</text>
</g>
<!-- 16 -->
<g id="node17" class="node">
<title>16</title>
<path fill="#f0b990" stroke="black" d="M1885.5,-365C1885.5,-365 1709.5,-365 1709.5,-365 1703.5,-365 1697.5,-359 1697.5,-353 1697.5,-353 1697.5,-309 1697.5,-309 1697.5,-303 1703.5,-297 1709.5,-297 1709.5,-297 1885.5,-297 1885.5,-297 1891.5,-297 1897.5,-303 1897.5,-309 1897.5,-309 1897.5,-353 1897.5,-353 1897.5,-359 1891.5,-365 1885.5,-365"/>
<text text-anchor="start" x="1705.5" y="-349.8" font-family="Helvetica,sans-Serif" font-size="14.00">borough_BROOKLYN ≤ 0.5</text>
<text text-anchor="start" x="1723" y="-334.8" font-family="Helvetica,sans-Serif" font-size="14.00">squared_error = 2.45</text>
<text text-anchor="start" x="1749" y="-319.8" font-family="Helvetica,sans-Serif" font-size="14.00">samples = 40</text>
<text text-anchor="start" x="1752" y="-304.8" font-family="Helvetica,sans-Serif" font-size="14.00">value = 1.03</text>
</g>
<!-- 0&#45;&gt;16 -->
<g id="edge16" class="edge">
<title>0&#45;&gt;16</title>
<path fill="none" stroke="black" d="M1541.81,-403.26C1587.99,-390.39 1641.54,-375.46 1687.67,-362.61"/>
<polygon fill="black" stroke="black" points="1688.7,-365.96 1697.39,-359.9 1686.82,-359.21 1688.7,-365.96"/>
<text text-anchor="middle" x="1685.11" y="-377.97" font-family="Helvetica,sans-Serif" font-size="14.00">False</text>
</g>
<!-- 2 -->
<g id="node3" class="node">
<title>2</title>
<path fill="#fae6d8" stroke="black" d="M652.5,-261C652.5,-261 456.5,-261 456.5,-261 450.5,-261 444.5,-255 444.5,-249 444.5,-249 444.5,-205 444.5,-205 444.5,-199 450.5,-193 456.5,-193 456.5,-193 652.5,-193 652.5,-193 658.5,-193 664.5,-199 664.5,-205 664.5,-205 664.5,-249 664.5,-249 664.5,-255 658.5,-261 652.5,-261"/>
<text text-anchor="start" x="452.5" y="-245.8" font-family="Helvetica,sans-Serif" font-size="14.00">num_vehicles_involved ≤ 2.5</text>
<text text-anchor="start" x="480" y="-230.8" font-family="Helvetica,sans-Serif" font-size="14.00">squared_error = 0.44</text>
<text text-anchor="start" x="497" y="-215.8" font-family="Helvetica,sans-Serif" font-size="14.00">samples = 2861</text>
<text text-anchor="start" x="509" y="-200.8" font-family="Helvetica,sans-Serif" font-size="14.00">value = 0.37</text>
</g>
<!-- 1&#45;&gt;2 -->
<g id="edge2" class="edge">
<title>1&#45;&gt;2</title>
<path fill="none" stroke="black" d="M1004.8,-314.17C916.37,-297.25 775.3,-270.25 674.62,-250.99"/>
<polygon fill="black" stroke="black" points="675.18,-247.53 664.7,-249.09 673.87,-254.41 675.18,-247.53"/>
</g>
<!-- 9 -->
<g id="node10" class="node">
<title>9</title>
<path fill="#f8decb" stroke="black" d="M1185.5,-261C1185.5,-261 989.5,-261 989.5,-261 983.5,-261 977.5,-255 977.5,-249 977.5,-249 977.5,-205 977.5,-205 977.5,-199 983.5,-193 989.5,-193 989.5,-193 1185.5,-193 1185.5,-193 1191.5,-193 1197.5,-199 1197.5,-205 1197.5,-205 1197.5,-249 1197.5,-249 1197.5,-255 1191.5,-261 1185.5,-261"/>
<text text-anchor="start" x="985.5" y="-245.8" font-family="Helvetica,sans-Serif" font-size="14.00">num_vehicles_involved ≤ 2.5</text>
<text text-anchor="start" x="1013" y="-230.8" font-family="Helvetica,sans-Serif" font-size="14.00">squared_error = 0.55</text>
<text text-anchor="start" x="1034.5" y="-215.8" font-family="Helvetica,sans-Serif" font-size="14.00">samples = 952</text>
<text text-anchor="start" x="1042" y="-200.8" font-family="Helvetica,sans-Serif" font-size="14.00">value = 0.49</text>
</g>
<!-- 1&#45;&gt;9 -->
<g id="edge9" class="edge">
<title>1&#45;&gt;9</title>
<path fill="none" stroke="black" d="M1087.5,-296.88C1087.5,-288.78 1087.5,-279.98 1087.5,-271.47"/>
<polygon fill="black" stroke="black" points="1091,-271.3 1087.5,-261.3 1084,-271.3 1091,-271.3"/>
</g>
<!-- 3 -->
<g id="node4" class="node">
<title>3</title>
<path fill="#fae7d9" stroke="black" d="M363.5,-157C363.5,-157 167.5,-157 167.5,-157 161.5,-157 155.5,-151 155.5,-145 155.5,-145 155.5,-101 155.5,-101 155.5,-95 161.5,-89 167.5,-89 167.5,-89 363.5,-89 363.5,-89 369.5,-89 375.5,-95 375.5,-101 375.5,-101 375.5,-145 375.5,-145 375.5,-151 369.5,-157 363.5,-157"/>
<text text-anchor="start" x="163.5" y="-141.8" font-family="Helvetica,sans-Serif" font-size="14.00">num_vehicles_involved ≤ 1.5</text>
<text text-anchor="start" x="191" y="-126.8" font-family="Helvetica,sans-Serif" font-size="14.00">squared_error = 0.42</text>
<text text-anchor="start" x="208" y="-111.8" font-family="Helvetica,sans-Serif" font-size="14.00">samples = 2608</text>
<text text-anchor="start" x="220" y="-96.8" font-family="Helvetica,sans-Serif" font-size="14.00">value = 0.35</text>
</g>
<!-- 2&#45;&gt;3 -->
<g id="edge3" class="edge">
<title>2&#45;&gt;3</title>
<path fill="none" stroke="black" d="M460.67,-192.88C431.37,-182.54 398.89,-171.08 368.97,-160.52"/>
<polygon fill="black" stroke="black" points="369.95,-157.15 359.35,-157.12 367.62,-163.75 369.95,-157.15"/>
</g>
<!-- 6 -->
<g id="node7" class="node">
<title>6</title>
<path fill="#f8ddca" stroke="black" d="M625,-157C625,-157 484,-157 484,-157 478,-157 472,-151 472,-145 472,-145 472,-101 472,-101 472,-95 478,-89 484,-89 484,-89 625,-89 625,-89 631,-89 637,-95 637,-101 637,-101 637,-145 637,-145 637,-151 631,-157 625,-157"/>
<text text-anchor="start" x="488.5" y="-141.8" font-family="Helvetica,sans-Serif" font-size="14.00">timeframe_1 ≤ 0.5</text>
<text text-anchor="start" x="480" y="-126.8" font-family="Helvetica,sans-Serif" font-size="14.00">squared_error = 0.71</text>
<text text-anchor="start" x="501.5" y="-111.8" font-family="Helvetica,sans-Serif" font-size="14.00">samples = 253</text>
<text text-anchor="start" x="509" y="-96.8" font-family="Helvetica,sans-Serif" font-size="14.00">value = 0.49</text>
</g>
<!-- 2&#45;&gt;6 -->
<g id="edge6" class="edge">
<title>2&#45;&gt;6</title>
<path fill="none" stroke="black" d="M554.5,-192.88C554.5,-184.78 554.5,-175.98 554.5,-167.47"/>
<polygon fill="black" stroke="black" points="558,-167.3 554.5,-157.3 551,-167.3 558,-167.3"/>
</g>
<!-- 4 -->
<g id="node5" class="node">
<title>4</title>
<path fill="#f9e2d2" stroke="black" d="M153,-53C153,-53 12,-53 12,-53 6,-53 0,-47 0,-41 0,-41 0,-12 0,-12 0,-6 6,0 12,0 12,0 153,0 153,0 159,0 165,-6 165,-12 165,-12 165,-41 165,-41 165,-47 159,-53 153,-53"/>
<text text-anchor="start" x="8" y="-37.8" font-family="Helvetica,sans-Serif" font-size="14.00">squared_error = 0.31</text>
<text text-anchor="start" x="29.5" y="-22.8" font-family="Helvetica,sans-Serif" font-size="14.00">samples = 779</text>
<text text-anchor="start" x="37" y="-7.8" font-family="Helvetica,sans-Serif" font-size="14.00">value = 0.42</text>
</g>
<!-- 3&#45;&gt;4 -->
<g id="edge4" class="edge">
<title>3&#45;&gt;4</title>
<path fill="none" stroke="black" d="M201.5,-88.95C181.83,-78.79 160.3,-67.67 141.02,-57.72"/>
<polygon fill="black" stroke="black" points="142.54,-54.57 132.05,-53.09 139.33,-60.78 142.54,-54.57"/>
</g>
<!-- 5 -->
<g id="node6" class="node">
<title>5</title>
<path fill="#fae9dc" stroke="black" d="M336,-53C336,-53 195,-53 195,-53 189,-53 183,-47 183,-41 183,-41 183,-12 183,-12 183,-6 189,0 195,0 195,0 336,0 336,0 342,0 348,-6 348,-12 348,-12 348,-41 348,-41 348,-47 342,-53 336,-53"/>
<text text-anchor="start" x="191" y="-37.8" font-family="Helvetica,sans-Serif" font-size="14.00">squared_error = 0.46</text>
<text text-anchor="start" x="208" y="-22.8" font-family="Helvetica,sans-Serif" font-size="14.00">samples = 1829</text>
<text text-anchor="start" x="220" y="-7.8" font-family="Helvetica,sans-Serif" font-size="14.00">value = 0.32</text>
</g>
<!-- 3&#45;&gt;5 -->
<g id="edge5" class="edge">
<title>3&#45;&gt;5</title>
<path fill="none" stroke="black" d="M265.5,-88.95C265.5,-80.72 265.5,-71.85 265.5,-63.48"/>
<polygon fill="black" stroke="black" points="269,-63.24 265.5,-53.24 262,-63.24 269,-63.24"/>
</g>
<!-- 7 -->
<g id="node8" class="node">
<title>7</title>
<path fill="#f7d8c2" stroke="black" d="M519,-53C519,-53 378,-53 378,-53 372,-53 366,-47 366,-41 366,-41 366,-12 366,-12 366,-6 372,0 378,0 378,0 519,0 519,0 525,0 531,-6 531,-12 531,-12 531,-41 531,-41 531,-47 525,-53 519,-53"/>
<text text-anchor="start" x="374" y="-37.8" font-family="Helvetica,sans-Serif" font-size="14.00">squared_error = 0.75</text>
<text text-anchor="start" x="395.5" y="-22.8" font-family="Helvetica,sans-Serif" font-size="14.00">samples = 178</text>
<text text-anchor="start" x="403" y="-7.8" font-family="Helvetica,sans-Serif" font-size="14.00">value = 0.57</text>
</g>
<!-- 6&#45;&gt;7 -->
<g id="edge7" class="edge">
<title>6&#45;&gt;7</title>
<path fill="none" stroke="black" d="M517.43,-88.95C506.96,-79.62 495.58,-69.47 485.14,-60.16"/>
<polygon fill="black" stroke="black" points="487.16,-57.28 477.37,-53.24 482.5,-62.5 487.16,-57.28"/>
</g>
<!-- 8 -->
<g id="node9" class="node">
<title>8</title>
<path fill="#fae8dc" stroke="black" d="M702,-53C702,-53 561,-53 561,-53 555,-53 549,-47 549,-41 549,-41 549,-12 549,-12 549,-6 555,0 561,0 561,0 702,0 702,0 708,0 714,-6 714,-12 714,-12 714,-41 714,-41 714,-47 708,-53 702,-53"/>
<text text-anchor="start" x="557" y="-37.8" font-family="Helvetica,sans-Serif" font-size="14.00">squared_error = 0.58</text>
<text text-anchor="start" x="583" y="-22.8" font-family="Helvetica,sans-Serif" font-size="14.00">samples = 75</text>
<text text-anchor="start" x="586" y="-7.8" font-family="Helvetica,sans-Serif" font-size="14.00">value = 0.33</text>
</g>
<!-- 6&#45;&gt;8 -->
<g id="edge8" class="edge">
<title>6&#45;&gt;8</title>
<path fill="none" stroke="black" d="M581.43,-88.95C588.74,-79.98 596.65,-70.27 603.99,-61.26"/>
<polygon fill="black" stroke="black" points="606.93,-63.2 610.53,-53.24 601.5,-58.78 606.93,-63.2"/>
</g>
<!-- 10 -->
<g id="node11" class="node">
<title>10</title>
<path fill="#f8dfcd" stroke="black" d="M1075.5,-157C1075.5,-157 879.5,-157 879.5,-157 873.5,-157 867.5,-151 867.5,-145 867.5,-145 867.5,-101 867.5,-101 867.5,-95 873.5,-89 879.5,-89 879.5,-89 1075.5,-89 1075.5,-89 1081.5,-89 1087.5,-95 1087.5,-101 1087.5,-101 1087.5,-145 1087.5,-145 1087.5,-151 1081.5,-157 1075.5,-157"/>
<text text-anchor="start" x="875.5" y="-141.8" font-family="Helvetica,sans-Serif" font-size="14.00">num_vehicles_involved ≤ 1.5</text>
<text text-anchor="start" x="903" y="-126.8" font-family="Helvetica,sans-Serif" font-size="14.00">squared_error = 0.49</text>
<text text-anchor="start" x="924.5" y="-111.8" font-family="Helvetica,sans-Serif" font-size="14.00">samples = 856</text>
<text text-anchor="start" x="932" y="-96.8" font-family="Helvetica,sans-Serif" font-size="14.00">value = 0.47</text>
</g>
<!-- 9&#45;&gt;10 -->
<g id="edge10" class="edge">
<title>9&#45;&gt;10</title>
<path fill="none" stroke="black" d="M1051.79,-192.88C1041.89,-183.71 1031.04,-173.65 1020.77,-164.12"/>
<polygon fill="black" stroke="black" points="1023.12,-161.53 1013.41,-157.3 1018.36,-166.67 1023.12,-161.53"/>
</g>
<!-- 13 -->
<g id="node14" class="node">
<title>13</title>
<path fill="#f6d3ba" stroke="black" d="M1277.5,-157C1277.5,-157 1117.5,-157 1117.5,-157 1111.5,-157 1105.5,-151 1105.5,-145 1105.5,-145 1105.5,-101 1105.5,-101 1105.5,-95 1111.5,-89 1117.5,-89 1117.5,-89 1277.5,-89 1277.5,-89 1283.5,-89 1289.5,-95 1289.5,-101 1289.5,-101 1289.5,-145 1289.5,-145 1289.5,-151 1283.5,-157 1277.5,-157"/>
<text text-anchor="start" x="1113.5" y="-141.8" font-family="Helvetica,sans-Serif" font-size="14.00">borough_QUEENS ≤ 0.5</text>
<text text-anchor="start" x="1123" y="-126.8" font-family="Helvetica,sans-Serif" font-size="14.00">squared_error = 0.97</text>
<text text-anchor="start" x="1149" y="-111.8" font-family="Helvetica,sans-Serif" font-size="14.00">samples = 96</text>
<text text-anchor="start" x="1152" y="-96.8" font-family="Helvetica,sans-Serif" font-size="14.00">value = 0.64</text>
</g>
<!-- 9&#45;&gt;13 -->
<g id="edge13" class="edge">
<title>9&#45;&gt;13</title>
<path fill="none" stroke="black" d="M1123.21,-192.88C1133.11,-183.71 1143.96,-173.65 1154.23,-164.12"/>
<polygon fill="black" stroke="black" points="1156.64,-166.67 1161.59,-157.3 1151.88,-161.53 1156.64,-166.67"/>
</g>
<!-- 11 -->
<g id="node12" class="node">
<title>11</title>
<path fill="#f7d9c4" stroke="black" d="M885,-53C885,-53 744,-53 744,-53 738,-53 732,-47 732,-41 732,-41 732,-12 732,-12 732,-6 738,0 744,0 744,0 885,0 885,0 891,0 897,-6 897,-12 897,-12 897,-41 897,-41 897,-47 891,-53 885,-53"/>
<text text-anchor="start" x="740" y="-37.8" font-family="Helvetica,sans-Serif" font-size="14.00">squared_error = 0.42</text>
<text text-anchor="start" x="761.5" y="-22.8" font-family="Helvetica,sans-Serif" font-size="14.00">samples = 288</text>
<text text-anchor="start" x="769" y="-7.8" font-family="Helvetica,sans-Serif" font-size="14.00">value = 0.55</text>
</g>
<!-- 10&#45;&gt;11 -->
<g id="edge11" class="edge">
<title>10&#45;&gt;11</title>
<path fill="none" stroke="black" d="M920.49,-88.95C903.21,-78.93 884.32,-67.98 867.33,-58.13"/>
<polygon fill="black" stroke="black" points="869.04,-55.07 858.63,-53.09 865.53,-61.13 869.04,-55.07"/>
</g>
<!-- 12 -->
<g id="node13" class="node">
<title>12</title>
<path fill="#f9e2d1" stroke="black" d="M1068,-53C1068,-53 927,-53 927,-53 921,-53 915,-47 915,-41 915,-41 915,-12 915,-12 915,-6 921,0 927,0 927,0 1068,0 1068,0 1074,0 1080,-6 1080,-12 1080,-12 1080,-41 1080,-41 1080,-47 1074,-53 1068,-53"/>
<text text-anchor="start" x="923" y="-37.8" font-family="Helvetica,sans-Serif" font-size="14.00">squared_error = 0.53</text>
<text text-anchor="start" x="944.5" y="-22.8" font-family="Helvetica,sans-Serif" font-size="14.00">samples = 568</text>
<text text-anchor="start" x="952" y="-7.8" font-family="Helvetica,sans-Serif" font-size="14.00">value = 0.43</text>
</g>
<!-- 10&#45;&gt;12 -->
<g id="edge12" class="edge">
<title>10&#45;&gt;12</title>
<path fill="none" stroke="black" d="M984.5,-88.95C986.26,-80.62 988.16,-71.65 989.94,-63.2"/>
<polygon fill="black" stroke="black" points="993.41,-63.74 992.05,-53.24 986.56,-62.3 993.41,-63.74"/>
</g>
<!-- 14 -->
<g id="node15" class="node">
<title>14</title>
<path fill="#f5ceb2" stroke="black" d="M1242.5,-53C1242.5,-53 1110.5,-53 1110.5,-53 1104.5,-53 1098.5,-47 1098.5,-41 1098.5,-41 1098.5,-12 1098.5,-12 1098.5,-6 1104.5,0 1110.5,0 1110.5,0 1242.5,0 1242.5,0 1248.5,0 1254.5,-6 1254.5,-12 1254.5,-12 1254.5,-41 1254.5,-41 1254.5,-47 1248.5,-53 1242.5,-53"/>
<text text-anchor="start" x="1106.5" y="-37.8" font-family="Helvetica,sans-Serif" font-size="14.00">squared_error = 1.1</text>
<text text-anchor="start" x="1128" y="-22.8" font-family="Helvetica,sans-Serif" font-size="14.00">samples = 78</text>
<text text-anchor="start" x="1131" y="-7.8" font-family="Helvetica,sans-Serif" font-size="14.00">value = 0.72</text>
</g>
<!-- 13&#45;&gt;14 -->
<g id="edge14" class="edge">
<title>13&#45;&gt;14</title>
<path fill="none" stroke="black" d="M1190.16,-88.95C1188.31,-80.62 1186.31,-71.65 1184.43,-63.2"/>
<polygon fill="black" stroke="black" points="1187.81,-62.24 1182.22,-53.24 1180.97,-63.76 1187.81,-62.24"/>
</g>
<!-- 15 -->
<g id="node16" class="node">
<title>15</title>
<path fill="#fae6d7" stroke="black" d="M1416.5,-53C1416.5,-53 1284.5,-53 1284.5,-53 1278.5,-53 1272.5,-47 1272.5,-41 1272.5,-41 1272.5,-12 1272.5,-12 1272.5,-6 1278.5,0 1284.5,0 1284.5,0 1416.5,0 1416.5,0 1422.5,0 1428.5,-6 1428.5,-12 1428.5,-12 1428.5,-41 1428.5,-41 1428.5,-47 1422.5,-53 1416.5,-53"/>
<text text-anchor="start" x="1280.5" y="-37.8" font-family="Helvetica,sans-Serif" font-size="14.00">squared_error = 0.4</text>
<text text-anchor="start" x="1302" y="-22.8" font-family="Helvetica,sans-Serif" font-size="14.00">samples = 18</text>
<text text-anchor="start" x="1305" y="-7.8" font-family="Helvetica,sans-Serif" font-size="14.00">value = 0.37</text>
</g>
<!-- 13&#45;&gt;15 -->
<g id="edge15" class="edge">
<title>13&#45;&gt;15</title>
<path fill="none" stroke="black" d="M1251.01,-88.95C1267.01,-79.07 1284.48,-68.28 1300.26,-58.53"/>
<polygon fill="black" stroke="black" points="1302.16,-61.47 1308.83,-53.24 1298.48,-55.51 1302.16,-61.47"/>
</g>
<!-- 17 -->
<g id="node18" class="node">
<title>17</title>
<path fill="#eb9f68" stroke="black" d="M1896.5,-261C1896.5,-261 1698.5,-261 1698.5,-261 1692.5,-261 1686.5,-255 1686.5,-249 1686.5,-249 1686.5,-205 1686.5,-205 1686.5,-199 1692.5,-193 1698.5,-193 1698.5,-193 1896.5,-193 1896.5,-193 1902.5,-193 1908.5,-199 1908.5,-205 1908.5,-205 1908.5,-249 1908.5,-249 1908.5,-255 1902.5,-261 1896.5,-261"/>
<text text-anchor="start" x="1694.5" y="-245.8" font-family="Helvetica,sans-Serif" font-size="14.00">time_of_week_weekend ≤ 0.5</text>
<text text-anchor="start" x="1723" y="-230.8" font-family="Helvetica,sans-Serif" font-size="14.00">squared_error = 3.19</text>
<text text-anchor="start" x="1749" y="-215.8" font-family="Helvetica,sans-Serif" font-size="14.00">samples = 28</text>
<text text-anchor="start" x="1756.5" y="-200.8" font-family="Helvetica,sans-Serif" font-size="14.00">value = 1.4</text>
</g>
<!-- 16&#45;&gt;17 -->
<g id="edge17" class="edge">
<title>16&#45;&gt;17</title>
<path fill="none" stroke="black" d="M1797.5,-296.88C1797.5,-288.78 1797.5,-279.98 1797.5,-271.47"/>
<polygon fill="black" stroke="black" points="1801,-271.3 1797.5,-261.3 1794,-271.3 1801,-271.3"/>
</g>
<!-- 24 -->
<g id="node25" class="node">
<title>24</title>
<path fill="#fae5d7" stroke="black" d="M2324,-261C2324,-261 2183,-261 2183,-261 2177,-261 2171,-255 2171,-249 2171,-249 2171,-205 2171,-205 2171,-199 2177,-193 2183,-193 2183,-193 2324,-193 2324,-193 2330,-193 2336,-199 2336,-205 2336,-205 2336,-249 2336,-249 2336,-255 2330,-261 2324,-261"/>
<text text-anchor="start" x="2187.5" y="-245.8" font-family="Helvetica,sans-Serif" font-size="14.00">timeframe_3 ≤ 0.5</text>
<text text-anchor="start" x="2179" y="-230.8" font-family="Helvetica,sans-Serif" font-size="14.00">squared_error = 0.48</text>
<text text-anchor="start" x="2205" y="-215.8" font-family="Helvetica,sans-Serif" font-size="14.00">samples = 12</text>
<text text-anchor="start" x="2208" y="-200.8" font-family="Helvetica,sans-Serif" font-size="14.00">value = 0.38</text>
</g>
<!-- 16&#45;&gt;24 -->
<g id="edge24" class="edge">
<title>16&#45;&gt;24</title>
<path fill="none" stroke="black" d="M1897.57,-307.62C1975.98,-290.08 2084.23,-265.86 2160.71,-248.76"/>
<polygon fill="black" stroke="black" points="2161.82,-252.09 2170.81,-246.5 2160.29,-245.26 2161.82,-252.09"/>
</g>
<!-- 18 -->
<g id="node19" class="node">
<title>18</title>
<path fill="#e78a47" stroke="black" d="M1790.5,-157C1790.5,-157 1602.5,-157 1602.5,-157 1596.5,-157 1590.5,-151 1590.5,-145 1590.5,-145 1590.5,-101 1590.5,-101 1590.5,-95 1596.5,-89 1602.5,-89 1602.5,-89 1790.5,-89 1790.5,-89 1796.5,-89 1802.5,-95 1802.5,-101 1802.5,-101 1802.5,-145 1802.5,-145 1802.5,-151 1796.5,-157 1790.5,-157"/>
<text text-anchor="start" x="1598.5" y="-141.8" font-family="Helvetica,sans-Serif" font-size="14.00">borough_MANHATTAN ≤ 0.5</text>
<text text-anchor="start" x="1626.5" y="-126.8" font-family="Helvetica,sans-Serif" font-size="14.00">squared_error = 3.2</text>
<text text-anchor="start" x="1648" y="-111.8" font-family="Helvetica,sans-Serif" font-size="14.00">samples = 18</text>
<text text-anchor="start" x="1651" y="-96.8" font-family="Helvetica,sans-Serif" font-size="14.00">value = 1.71</text>
</g>
<!-- 17&#45;&gt;18 -->
<g id="edge18" class="edge">
<title>17&#45;&gt;18</title>
<path fill="none" stroke="black" d="M1764.71,-192.88C1755.8,-183.89 1746.05,-174.04 1736.78,-164.68"/>
<polygon fill="black" stroke="black" points="1739,-161.94 1729.47,-157.3 1734.02,-166.87 1739,-161.94"/>
</g>
<!-- 21 -->
<g id="node22" class="node">
<title>21</title>
<path fill="#f4c9ab" stroke="black" d="M1964.5,-157C1964.5,-157 1832.5,-157 1832.5,-157 1826.5,-157 1820.5,-151 1820.5,-145 1820.5,-145 1820.5,-101 1820.5,-101 1820.5,-95 1826.5,-89 1832.5,-89 1832.5,-89 1964.5,-89 1964.5,-89 1970.5,-89 1976.5,-95 1976.5,-101 1976.5,-101 1976.5,-145 1976.5,-145 1976.5,-151 1970.5,-157 1964.5,-157"/>
<text text-anchor="start" x="1832.5" y="-141.8" font-family="Helvetica,sans-Serif" font-size="14.00">timeframe_1 ≤ 0.5</text>
<text text-anchor="start" x="1828.5" y="-126.8" font-family="Helvetica,sans-Serif" font-size="14.00">squared_error = 2.6</text>
<text text-anchor="start" x="1850" y="-111.8" font-family="Helvetica,sans-Serif" font-size="14.00">samples = 10</text>
<text text-anchor="start" x="1853" y="-96.8" font-family="Helvetica,sans-Serif" font-size="14.00">value = 0.79</text>
</g>
<!-- 17&#45;&gt;21 -->
<g id="edge21" class="edge">
<title>17&#45;&gt;21</title>
<path fill="none" stroke="black" d="M1830.29,-192.88C1839.2,-183.89 1848.95,-174.04 1858.22,-164.68"/>
<polygon fill="black" stroke="black" points="1860.98,-166.87 1865.53,-157.3 1856,-161.94 1860.98,-166.87"/>
</g>
<!-- 19 -->
<g id="node20" class="node">
<title>19</title>
<path fill="#e58139" stroke="black" d="M1600,-53C1600,-53 1459,-53 1459,-53 1453,-53 1447,-47 1447,-41 1447,-41 1447,-12 1447,-12 1447,-6 1453,0 1459,0 1459,0 1600,0 1600,0 1606,0 1612,-6 1612,-12 1612,-12 1612,-41 1612,-41 1612,-47 1606,-53 1600,-53"/>
<text text-anchor="start" x="1455" y="-37.8" font-family="Helvetica,sans-Serif" font-size="14.00">squared_error = 3.21</text>
<text text-anchor="start" x="1481" y="-22.8" font-family="Helvetica,sans-Serif" font-size="14.00">samples = 17</text>
<text text-anchor="start" x="1484" y="-7.8" font-family="Helvetica,sans-Serif" font-size="14.00">value = 1.85</text>
</g>
<!-- 18&#45;&gt;19 -->
<g id="edge19" class="edge">
<title>18&#45;&gt;19</title>
<path fill="none" stroke="black" d="M1638.09,-88.95C1620.39,-78.93 1601.03,-67.98 1583.62,-58.13"/>
<polygon fill="black" stroke="black" points="1585.14,-54.97 1574.72,-53.09 1581.7,-61.06 1585.14,-54.97"/>
</g>
<!-- 20 -->
<g id="node21" class="node">
<title>20</title>
<path fill="#ffffff" stroke="black" d="M1774.5,-53C1774.5,-53 1642.5,-53 1642.5,-53 1636.5,-53 1630.5,-47 1630.5,-41 1630.5,-41 1630.5,-12 1630.5,-12 1630.5,-6 1636.5,0 1642.5,0 1642.5,0 1774.5,0 1774.5,0 1780.5,0 1786.5,-6 1786.5,-12 1786.5,-12 1786.5,-41 1786.5,-41 1786.5,-47 1780.5,-53 1774.5,-53"/>
<text text-anchor="start" x="1638.5" y="-37.8" font-family="Helvetica,sans-Serif" font-size="14.00">squared_error = 0.0</text>
<text text-anchor="start" x="1664.5" y="-22.8" font-family="Helvetica,sans-Serif" font-size="14.00">samples = 1</text>
<text text-anchor="start" x="1667.5" y="-7.8" font-family="Helvetica,sans-Serif" font-size="14.00">value = 0.0</text>
</g>
<!-- 18&#45;&gt;20 -->
<g id="edge20" class="edge">
<title>18&#45;&gt;20</title>
<path fill="none" stroke="black" d="M1700.7,-88.95C1701.75,-80.62 1702.89,-71.65 1703.97,-63.2"/>
<polygon fill="black" stroke="black" points="1707.44,-63.6 1705.23,-53.24 1700.5,-62.72 1707.44,-63.6"/>
</g>
<!-- 22 -->
<g id="node23" class="node">
<title>22</title>
<path fill="#f8ddc9" stroke="black" d="M1958,-53C1958,-53 1817,-53 1817,-53 1811,-53 1805,-47 1805,-41 1805,-41 1805,-12 1805,-12 1805,-6 1811,0 1817,0 1817,0 1958,0 1958,0 1964,0 1970,-6 1970,-12 1970,-12 1970,-41 1970,-41 1970,-47 1964,-53 1958,-53"/>
<text text-anchor="start" x="1813" y="-37.8" font-family="Helvetica,sans-Serif" font-size="14.00">squared_error = 0.75</text>
<text text-anchor="start" x="1843.5" y="-22.8" font-family="Helvetica,sans-Serif" font-size="14.00">samples = 5</text>
<text text-anchor="start" x="1846.5" y="-7.8" font-family="Helvetica,sans-Serif" font-size="14.00">value = 0.5</text>
</g>
<!-- 21&#45;&gt;22 -->
<g id="edge22" class="edge">
<title>21&#45;&gt;22</title>
<path fill="none" stroke="black" d="M1894.65,-88.95C1893.68,-80.62 1892.64,-71.65 1891.66,-63.2"/>
<polygon fill="black" stroke="black" points="1895.13,-62.76 1890.5,-53.24 1888.18,-63.57 1895.13,-62.76"/>
</g>
<!-- 23 -->
<g id="node24" class="node">
<title>23</title>
<path fill="#efaf82" stroke="black" d="M2141,-53C2141,-53 2000,-53 2000,-53 1994,-53 1988,-47 1988,-41 1988,-41 1988,-12 1988,-12 1988,-6 1994,0 2000,0 2000,0 2141,0 2141,0 2147,0 2153,-6 2153,-12 2153,-12 2153,-41 2153,-41 2153,-47 2147,-53 2141,-53"/>
<text text-anchor="start" x="1996" y="-37.8" font-family="Helvetica,sans-Serif" font-size="14.00">squared_error = 4.81</text>
<text text-anchor="start" x="2026.5" y="-22.8" font-family="Helvetica,sans-Serif" font-size="14.00">samples = 5</text>
<text text-anchor="start" x="2025" y="-7.8" font-family="Helvetica,sans-Serif" font-size="14.00">value = 1.17</text>
</g>
<!-- 21&#45;&gt;23 -->
<g id="edge23" class="edge">
<title>21&#45;&gt;23</title>
<path fill="none" stroke="black" d="M1958.66,-88.95C1976.89,-78.93 1996.83,-67.98 2014.76,-58.13"/>
<polygon fill="black" stroke="black" points="2016.85,-60.97 2023.93,-53.09 2013.48,-54.83 2016.85,-60.97"/>
</g>
<!-- 25 -->
<g id="node26" class="node">
<title>25</title>
<path fill="#fcf1ea" stroke="black" d="M2352.5,-157C2352.5,-157 2154.5,-157 2154.5,-157 2148.5,-157 2142.5,-151 2142.5,-145 2142.5,-145 2142.5,-101 2142.5,-101 2142.5,-95 2148.5,-89 2154.5,-89 2154.5,-89 2352.5,-89 2352.5,-89 2358.5,-89 2364.5,-95 2364.5,-101 2364.5,-101 2364.5,-145 2364.5,-145 2364.5,-151 2358.5,-157 2352.5,-157"/>
<text text-anchor="start" x="2150.5" y="-141.8" font-family="Helvetica,sans-Serif" font-size="14.00">time_of_week_weekday ≤ 0.5</text>
<text text-anchor="start" x="2179" y="-126.8" font-family="Helvetica,sans-Serif" font-size="14.00">squared_error = 0.29</text>
<text text-anchor="start" x="2209.5" y="-111.8" font-family="Helvetica,sans-Serif" font-size="14.00">samples = 8</text>
<text text-anchor="start" x="2212.5" y="-96.8" font-family="Helvetica,sans-Serif" font-size="14.00">value = 0.2</text>
</g>
<!-- 24&#45;&gt;25 -->
<g id="edge25" class="edge">
<title>24&#45;&gt;25</title>
<path fill="none" stroke="black" d="M2253.5,-192.88C2253.5,-184.78 2253.5,-175.98 2253.5,-167.47"/>
<polygon fill="black" stroke="black" points="2257,-167.3 2253.5,-157.3 2250,-167.3 2257,-167.3"/>
</g>
<!-- 28 -->
<g id="node29" class="node">
<title>28</title>
<path fill="#f6d2b8" stroke="black" d="M2536,-149.5C2536,-149.5 2395,-149.5 2395,-149.5 2389,-149.5 2383,-143.5 2383,-137.5 2383,-137.5 2383,-108.5 2383,-108.5 2383,-102.5 2389,-96.5 2395,-96.5 2395,-96.5 2536,-96.5 2536,-96.5 2542,-96.5 2548,-102.5 2548,-108.5 2548,-108.5 2548,-137.5 2548,-137.5 2548,-143.5 2542,-149.5 2536,-149.5"/>
<text text-anchor="start" x="2391" y="-134.3" font-family="Helvetica,sans-Serif" font-size="14.00">squared_error = 0.67</text>
<text text-anchor="start" x="2421.5" y="-119.3" font-family="Helvetica,sans-Serif" font-size="14.00">samples = 4</text>
<text text-anchor="start" x="2420" y="-104.3" font-family="Helvetica,sans-Serif" font-size="14.00">value = 0.67</text>
</g>
<!-- 24&#45;&gt;28 -->
<g id="edge28" class="edge">
<title>24&#45;&gt;28</title>
<path fill="none" stroke="black" d="M2322.33,-192.88C2348.39,-180.35 2377.88,-166.16 2403.29,-153.93"/>
<polygon fill="black" stroke="black" points="2404.96,-157.01 2412.46,-149.52 2401.93,-150.7 2404.96,-157.01"/>
</g>
<!-- 26 -->
<g id="node27" class="node">
<title>26</title>
<path fill="#fbece0" stroke="black" d="M2324,-53C2324,-53 2183,-53 2183,-53 2177,-53 2171,-47 2171,-41 2171,-41 2171,-12 2171,-12 2171,-6 2177,0 2183,0 2183,0 2324,0 2324,0 2330,0 2336,-6 2336,-12 2336,-12 2336,-41 2336,-41 2336,-47 2330,-53 2324,-53"/>
<text text-anchor="start" x="2179" y="-37.8" font-family="Helvetica,sans-Serif" font-size="14.00">squared_error = 0.49</text>
<text text-anchor="start" x="2209.5" y="-22.8" font-family="Helvetica,sans-Serif" font-size="14.00">samples = 4</text>
<text text-anchor="start" x="2208" y="-7.8" font-family="Helvetica,sans-Serif" font-size="14.00">value = 0.29</text>
</g>
<!-- 25&#45;&gt;26 -->
<g id="edge26" class="edge">
<title>25&#45;&gt;26</title>
<path fill="none" stroke="black" d="M2253.5,-88.95C2253.5,-80.72 2253.5,-71.85 2253.5,-63.48"/>
<polygon fill="black" stroke="black" points="2257,-63.24 2253.5,-53.24 2250,-63.24 2257,-63.24"/>
</g>
<!-- 27 -->
<g id="node28" class="node">
<title>27</title>
<path fill="#fdf6f2" stroke="black" d="M2507,-53C2507,-53 2366,-53 2366,-53 2360,-53 2354,-47 2354,-41 2354,-41 2354,-12 2354,-12 2354,-6 2360,0 2366,0 2366,0 2507,0 2507,0 2513,0 2519,-6 2519,-12 2519,-12 2519,-41 2519,-41 2519,-47 2513,-53 2507,-53"/>
<text text-anchor="start" x="2362" y="-37.8" font-family="Helvetica,sans-Serif" font-size="14.00">squared_error = 0.11</text>
<text text-anchor="start" x="2392.5" y="-22.8" font-family="Helvetica,sans-Serif" font-size="14.00">samples = 4</text>
<text text-anchor="start" x="2391" y="-7.8" font-family="Helvetica,sans-Serif" font-size="14.00">value = 0.12</text>
</g>
<!-- 25&#45;&gt;27 -->
<g id="edge27" class="edge">
<title>25&#45;&gt;27</title>
<path fill="none" stroke="black" d="M2317.5,-88.95C2337.17,-78.79 2358.7,-67.67 2377.98,-57.72"/>
<polygon fill="black" stroke="black" points="2379.67,-60.78 2386.95,-53.09 2376.46,-54.57 2379.67,-60.78"/>
</g>
</g>
</svg>
