<?xml version="1.0" encoding="UTF-8" standalone="no"?>
<!DOCTYPE svg PUBLIC "-//W3C//DTD SVG 1.1//EN"
 "http://www.w3.org/Graphics/SVG/1.1/DTD/svg11.dtd">
<!-- Generated by graphviz version 2.43.0 (0)
 -->
<!-- Title: Tree Pages: 1 -->
<svg width="2478pt" height="552pt"
 viewBox="0.00 0.00 2477.50 552.00" xmlns="http://www.w3.org/2000/svg" xmlns:xlink="http://www.w3.org/1999/xlink">
<g id="graph0" class="graph" transform="scale(1 1) rotate(0) translate(4 548)">
<title>Tree</title>
<polygon fill="white" stroke="transparent" points="-4,4 -4,-548 2473.5,-548 2473.5,4 -4,4"/>
<!-- 0 -->
<g id="node1" class="node">
<title>0</title>
<path fill="#f1bb94" stroke="black" d="M1325.5,-544C1325.5,-544 1129.5,-544 1129.5,-544 1123.5,-544 1117.5,-538 1117.5,-532 1117.5,-532 1117.5,-473 1117.5,-473 1117.5,-467 1123.5,-461 1129.5,-461 1129.5,-461 1325.5,-461 1325.5,-461 1331.5,-461 1337.5,-467 1337.5,-473 1337.5,-473 1337.5,-532 1337.5,-532 1337.5,-538 1331.5,-544 1325.5,-544"/>
<text text-anchor="start" x="1125.5" y="-528.8" font-family="Helvetica,sans-Serif" font-size="14.00">num_vehicles_involved ≤ 1.5</text>
<text text-anchor="start" x="1188" y="-513.8" font-family="Helvetica,sans-Serif" font-size="14.00">gini = 0.43</text>
<text text-anchor="start" x="1170" y="-498.8" font-family="Helvetica,sans-Serif" font-size="14.00">samples = 3925</text>
<text text-anchor="start" x="1152" y="-483.8" font-family="Helvetica,sans-Serif" font-size="14.00">value = [4197, 1930]</text>
<text text-anchor="start" x="1195" y="-468.8" font-family="Helvetica,sans-Serif" font-size="14.00">class = 0</text>
</g>
<!-- 1 -->
<g id="node2" class="node">
<title>1</title>
<path fill="#f6d5bd" stroke="black" d="M1021.5,-425C1021.5,-425 823.5,-425 823.5,-425 817.5,-425 811.5,-419 811.5,-413 811.5,-413 811.5,-354 811.5,-354 811.5,-348 817.5,-342 823.5,-342 823.5,-342 1021.5,-342 1021.5,-342 1027.5,-342 1033.5,-348 1033.5,-354 1033.5,-354 1033.5,-413 1033.5,-413 1033.5,-419 1027.5,-425 1021.5,-425"/>
<text text-anchor="start" x="819.5" y="-409.8" font-family="Helvetica,sans-Serif" font-size="14.00">time_of_week_weekend ≤ 0.5</text>
<text text-anchor="start" x="883" y="-394.8" font-family="Helvetica,sans-Serif" font-size="14.00">gini = 0.48</text>
<text text-anchor="start" x="865" y="-379.8" font-family="Helvetica,sans-Serif" font-size="14.00">samples = 1048</text>
<text text-anchor="start" x="856" y="-364.8" font-family="Helvetica,sans-Serif" font-size="14.00">value = [968, 644]</text>
<text text-anchor="start" x="890" y="-349.8" font-family="Helvetica,sans-Serif" font-size="14.00">class = 0</text>
</g>
<!-- 0&#45;&gt;1 -->
<g id="edge1" class="edge">
<title>0&#45;&gt;1</title>
<path fill="none" stroke="black" d="M1121.68,-460.91C1094.59,-450.52 1065.33,-439.29 1037.79,-428.73"/>
<polygon fill="black" stroke="black" points="1038.72,-425.33 1028.13,-425.02 1036.21,-431.87 1038.72,-425.33"/>
<text text-anchor="middle" x="1038.3" y="-444.16" font-family="Helvetica,sans-Serif" font-size="14.00">True</text>
</g>
<!-- 16 -->
<g id="node17" class="node">
<title>16</title>
<path fill="#efb388" stroke="black" d="M1626,-425C1626,-425 1483,-425 1483,-425 1477,-425 1471,-419 1471,-413 1471,-413 1471,-354 1471,-354 1471,-348 1477,-342 1483,-342 1483,-342 1626,-342 1626,-342 1632,-342 1638,-348 1638,-354 1638,-354 1638,-413 1638,-413 1638,-419 1632,-425 1626,-425"/>
<text text-anchor="start" x="1488.5" y="-409.8" font-family="Helvetica,sans-Serif" font-size="14.00">timeframe_4 ≤ 0.5</text>
<text text-anchor="start" x="1515" y="-394.8" font-family="Helvetica,sans-Serif" font-size="14.00">gini = 0.41</text>
<text text-anchor="start" x="1497" y="-379.8" font-family="Helvetica,sans-Serif" font-size="14.00">samples = 2877</text>
<text text-anchor="start" x="1479" y="-364.8" font-family="Helvetica,sans-Serif" font-size="14.00">value = [3229, 1286]</text>
<text text-anchor="start" x="1522" y="-349.8" font-family="Helvetica,sans-Serif" font-size="14.00">class = 0</text>
</g>
<!-- 0&#45;&gt;16 -->
<g id="edge16" class="edge">
<title>0&#45;&gt;16</title>
<path fill="none" stroke="black" d="M1337.75,-462.05C1377.83,-447.71 1422.71,-431.65 1461.18,-417.89"/>
<polygon fill="black" stroke="black" points="1462.59,-421.1 1470.82,-414.44 1460.23,-414.51 1462.59,-421.1"/>
<text text-anchor="middle" x="1460.13" y="-433.34" font-family="Helvetica,sans-Serif" font-size="14.00">False</text>
</g>
<!-- 2 -->
<g id="node3" class="node">
<title>2</title>
<path fill="#f8dbc6" stroke="black" d="M549,-306C549,-306 424,-306 424,-306 418,-306 412,-300 412,-294 412,-294 412,-235 412,-235 412,-229 418,-223 424,-223 424,-223 549,-223 549,-223 555,-223 561,-229 561,-235 561,-235 561,-294 561,-294 561,-300 555,-306 549,-306"/>
<text text-anchor="start" x="420.5" y="-290.8" font-family="Helvetica,sans-Serif" font-size="14.00">timeframe_4 ≤ 0.5</text>
<text text-anchor="start" x="447" y="-275.8" font-family="Helvetica,sans-Serif" font-size="14.00">gini = 0.49</text>
<text text-anchor="start" x="433.5" y="-260.8" font-family="Helvetica,sans-Serif" font-size="14.00">samples = 705</text>
<text text-anchor="start" x="420" y="-245.8" font-family="Helvetica,sans-Serif" font-size="14.00">value = [636, 454]</text>
<text text-anchor="start" x="454" y="-230.8" font-family="Helvetica,sans-Serif" font-size="14.00">class = 0</text>
</g>
<!-- 1&#45;&gt;2 -->
<g id="edge2" class="edge">
<title>1&#45;&gt;2</title>
<path fill="none" stroke="black" d="M811.35,-352.67C736.56,-332.6 639.49,-306.55 571,-288.18"/>
<polygon fill="black" stroke="black" points="571.67,-284.73 561.11,-285.52 569.86,-291.49 571.67,-284.73"/>
</g>
<!-- 9 -->
<g id="node10" class="node">
<title>9</title>
<path fill="#f4c9aa" stroke="black" d="M998.5,-306C998.5,-306 846.5,-306 846.5,-306 840.5,-306 834.5,-300 834.5,-294 834.5,-294 834.5,-235 834.5,-235 834.5,-229 840.5,-223 846.5,-223 846.5,-223 998.5,-223 998.5,-223 1004.5,-223 1010.5,-229 1010.5,-235 1010.5,-235 1010.5,-294 1010.5,-294 1010.5,-300 1004.5,-306 998.5,-306"/>
<text text-anchor="start" x="842.5" y="-290.8" font-family="Helvetica,sans-Serif" font-size="14.00">borough_BRONX ≤ 0.5</text>
<text text-anchor="start" x="883" y="-275.8" font-family="Helvetica,sans-Serif" font-size="14.00">gini = 0.46</text>
<text text-anchor="start" x="869.5" y="-260.8" font-family="Helvetica,sans-Serif" font-size="14.00">samples = 343</text>
<text text-anchor="start" x="856" y="-245.8" font-family="Helvetica,sans-Serif" font-size="14.00">value = [332, 190]</text>
<text text-anchor="start" x="890" y="-230.8" font-family="Helvetica,sans-Serif" font-size="14.00">class = 0</text>
</g>
<!-- 1&#45;&gt;9 -->
<g id="edge9" class="edge">
<title>1&#45;&gt;9</title>
<path fill="none" stroke="black" d="M922.5,-341.91C922.5,-333.65 922.5,-324.86 922.5,-316.3"/>
<polygon fill="black" stroke="black" points="926,-316.02 922.5,-306.02 919,-316.02 926,-316.02"/>
</g>
<!-- 3 -->
<g id="node4" class="node">
<title>3</title>
<path fill="#f7d6bf" stroke="black" d="M300,-187C300,-187 175,-187 175,-187 169,-187 163,-181 163,-175 163,-175 163,-116 163,-116 163,-110 169,-104 175,-104 175,-104 300,-104 300,-104 306,-104 312,-110 312,-116 312,-116 312,-175 312,-175 312,-181 306,-187 300,-187"/>
<text text-anchor="start" x="171.5" y="-171.8" font-family="Helvetica,sans-Serif" font-size="14.00">timeframe_1 ≤ 0.5</text>
<text text-anchor="start" x="198" y="-156.8" font-family="Helvetica,sans-Serif" font-size="14.00">gini = 0.48</text>
<text text-anchor="start" x="184.5" y="-141.8" font-family="Helvetica,sans-Serif" font-size="14.00">samples = 532</text>
<text text-anchor="start" x="171" y="-126.8" font-family="Helvetica,sans-Serif" font-size="14.00">value = [496, 336]</text>
<text text-anchor="start" x="205" y="-111.8" font-family="Helvetica,sans-Serif" font-size="14.00">class = 0</text>
</g>
<!-- 2&#45;&gt;3 -->
<g id="edge3" class="edge">
<title>2&#45;&gt;3</title>
<path fill="none" stroke="black" d="M411.79,-228.4C383.35,-215.03 350.77,-199.72 321.52,-185.98"/>
<polygon fill="black" stroke="black" points="322.69,-182.66 312.16,-181.58 319.72,-189 322.69,-182.66"/>
</g>
<!-- 6 -->
<g id="node7" class="node">
<title>6</title>
<path fill="#fbebe0" stroke="black" d="M584.5,-187C584.5,-187 388.5,-187 388.5,-187 382.5,-187 376.5,-181 376.5,-175 376.5,-175 376.5,-116 376.5,-116 376.5,-110 382.5,-104 388.5,-104 388.5,-104 584.5,-104 584.5,-104 590.5,-104 596.5,-110 596.5,-116 596.5,-116 596.5,-175 596.5,-175 596.5,-181 590.5,-187 584.5,-187"/>
<text text-anchor="start" x="384.5" y="-171.8" font-family="Helvetica,sans-Serif" font-size="14.00">num_vehicles_involved ≤ 0.5</text>
<text text-anchor="start" x="451.5" y="-156.8" font-family="Helvetica,sans-Serif" font-size="14.00">gini = 0.5</text>
<text text-anchor="start" x="433.5" y="-141.8" font-family="Helvetica,sans-Serif" font-size="14.00">samples = 173</text>
<text text-anchor="start" x="420" y="-126.8" font-family="Helvetica,sans-Serif" font-size="14.00">value = [140, 118]</text>
<text text-anchor="start" x="454" y="-111.8" font-family="Helvetica,sans-Serif" font-size="14.00">class = 0</text>
</g>
<!-- 2&#45;&gt;6 -->
<g id="edge6" class="edge">
<title>2&#45;&gt;6</title>
<path fill="none" stroke="black" d="M486.5,-222.91C486.5,-214.65 486.5,-205.86 486.5,-197.3"/>
<polygon fill="black" stroke="black" points="490,-197.02 486.5,-187.02 483,-197.02 490,-197.02"/>
</g>
<!-- 4 -->
<g id="node5" class="node">
<title>4</title>
<path fill="#fae5d6" stroke="black" d="M137,-68C137,-68 12,-68 12,-68 6,-68 0,-62 0,-56 0,-56 0,-12 0,-12 0,-6 6,0 12,0 12,0 137,0 137,0 143,0 149,-6 149,-12 149,-12 149,-56 149,-56 149,-62 143,-68 137,-68"/>
<text text-anchor="start" x="35" y="-52.8" font-family="Helvetica,sans-Serif" font-size="14.00">gini = 0.49</text>
<text text-anchor="start" x="21.5" y="-37.8" font-family="Helvetica,sans-Serif" font-size="14.00">samples = 449</text>
<text text-anchor="start" x="8" y="-22.8" font-family="Helvetica,sans-Serif" font-size="14.00">value = [390, 309]</text>
<text text-anchor="start" x="42" y="-7.8" font-family="Helvetica,sans-Serif" font-size="14.00">class = 0</text>
</g>
<!-- 3&#45;&gt;4 -->
<g id="edge4" class="edge">
<title>3&#45;&gt;4</title>
<path fill="none" stroke="black" d="M176.8,-103.73C162.2,-93.92 146.64,-83.46 132.18,-73.75"/>
<polygon fill="black" stroke="black" points="134.06,-70.8 123.81,-68.13 130.16,-76.61 134.06,-70.8"/>
</g>
<!-- 5 -->
<g id="node6" class="node">
<title>5</title>
<path fill="#eca16b" stroke="black" d="M295.5,-68C295.5,-68 179.5,-68 179.5,-68 173.5,-68 167.5,-62 167.5,-56 167.5,-56 167.5,-12 167.5,-12 167.5,-6 173.5,0 179.5,0 179.5,0 295.5,0 295.5,0 301.5,0 307.5,-6 307.5,-12 307.5,-12 307.5,-56 307.5,-56 307.5,-62 301.5,-68 295.5,-68"/>
<text text-anchor="start" x="198" y="-52.8" font-family="Helvetica,sans-Serif" font-size="14.00">gini = 0.32</text>
<text text-anchor="start" x="189" y="-37.8" font-family="Helvetica,sans-Serif" font-size="14.00">samples = 83</text>
<text text-anchor="start" x="175.5" y="-22.8" font-family="Helvetica,sans-Serif" font-size="14.00">value = [106, 27]</text>
<text text-anchor="start" x="205" y="-7.8" font-family="Helvetica,sans-Serif" font-size="14.00">class = 0</text>
</g>
<!-- 3&#45;&gt;5 -->
<g id="edge5" class="edge">
<title>3&#45;&gt;5</title>
<path fill="none" stroke="black" d="M237.5,-103.73C237.5,-95.52 237.5,-86.86 237.5,-78.56"/>
<polygon fill="black" stroke="black" points="241,-78.3 237.5,-68.3 234,-78.3 241,-78.3"/>
</g>
<!-- 7 -->
<g id="node8" class="node">
<title>7</title>
<path fill="#399de5" stroke="black" d="M427,-68C427,-68 338,-68 338,-68 332,-68 326,-62 326,-56 326,-56 326,-12 326,-12 326,-6 332,0 338,0 338,0 427,0 427,0 433,0 439,-6 439,-12 439,-12 439,-56 439,-56 439,-62 433,-68 427,-68"/>
<text text-anchor="start" x="347.5" y="-52.8" font-family="Helvetica,sans-Serif" font-size="14.00">gini = 0.0</text>
<text text-anchor="start" x="338.5" y="-37.8" font-family="Helvetica,sans-Serif" font-size="14.00">samples = 4</text>
<text text-anchor="start" x="334" y="-22.8" font-family="Helvetica,sans-Serif" font-size="14.00">value = [0, 4]</text>
<text text-anchor="start" x="350" y="-7.8" font-family="Helvetica,sans-Serif" font-size="14.00">class = 1</text>
</g>
<!-- 6&#45;&gt;7 -->
<g id="edge7" class="edge">
<title>6&#45;&gt;7</title>
<path fill="none" stroke="black" d="M447.77,-103.73C439.11,-94.61 429.92,-84.93 421.26,-75.81"/>
<polygon fill="black" stroke="black" points="423.55,-73.14 414.13,-68.3 418.48,-77.96 423.55,-73.14"/>
</g>
<!-- 8 -->
<g id="node9" class="node">
<title>8</title>
<path fill="#fae8da" stroke="black" d="M594,-68C594,-68 469,-68 469,-68 463,-68 457,-62 457,-56 457,-56 457,-12 457,-12 457,-6 463,0 469,0 469,0 594,0 594,0 600,0 606,-6 606,-12 606,-12 606,-56 606,-56 606,-62 600,-68 594,-68"/>
<text text-anchor="start" x="492" y="-52.8" font-family="Helvetica,sans-Serif" font-size="14.00">gini = 0.49</text>
<text text-anchor="start" x="478.5" y="-37.8" font-family="Helvetica,sans-Serif" font-size="14.00">samples = 169</text>
<text text-anchor="start" x="465" y="-22.8" font-family="Helvetica,sans-Serif" font-size="14.00">value = [140, 114]</text>
<text text-anchor="start" x="499" y="-7.8" font-family="Helvetica,sans-Serif" font-size="14.00">class = 0</text>
</g>
<!-- 6&#45;&gt;8 -->
<g id="edge8" class="edge">
<title>6&#45;&gt;8</title>
<path fill="none" stroke="black" d="M503.26,-103.73C506.74,-95.24 510.43,-86.28 513.94,-77.73"/>
<polygon fill="black" stroke="black" points="517.25,-78.88 517.82,-68.3 510.78,-76.22 517.25,-78.88"/>
</g>
<!-- 10 -->
<g id="node11" class="node">
<title>10</title>
<path fill="#f3c6a6" stroke="black" d="M902,-187C902,-187 777,-187 777,-187 771,-187 765,-181 765,-175 765,-175 765,-116 765,-116 765,-110 771,-104 777,-104 777,-104 902,-104 902,-104 908,-104 914,-110 914,-116 914,-116 914,-175 914,-175 914,-181 908,-187 902,-187"/>
<text text-anchor="start" x="773.5" y="-171.8" font-family="Helvetica,sans-Serif" font-size="14.00">timeframe_4 ≤ 0.5</text>
<text text-anchor="start" x="800" y="-156.8" font-family="Helvetica,sans-Serif" font-size="14.00">gini = 0.46</text>
<text text-anchor="start" x="786.5" y="-141.8" font-family="Helvetica,sans-Serif" font-size="14.00">samples = 291</text>
<text text-anchor="start" x="773" y="-126.8" font-family="Helvetica,sans-Serif" font-size="14.00">value = [286, 157]</text>
<text text-anchor="start" x="807" y="-111.8" font-family="Helvetica,sans-Serif" font-size="14.00">class = 0</text>
</g>
<!-- 9&#45;&gt;10 -->
<g id="edge10" class="edge">
<title>9&#45;&gt;10</title>
<path fill="none" stroke="black" d="M893.7,-222.91C887.39,-214.01 880.65,-204.51 874.14,-195.33"/>
<polygon fill="black" stroke="black" points="876.89,-193.15 868.25,-187.02 871.18,-197.2 876.89,-193.15"/>
</g>
<!-- 13 -->
<g id="node14" class="node">
<title>13</title>
<path fill="#f8dbc7" stroke="black" d="M1068.5,-187C1068.5,-187 944.5,-187 944.5,-187 938.5,-187 932.5,-181 932.5,-175 932.5,-175 932.5,-116 932.5,-116 932.5,-110 938.5,-104 944.5,-104 944.5,-104 1068.5,-104 1068.5,-104 1074.5,-104 1080.5,-110 1080.5,-116 1080.5,-116 1080.5,-175 1080.5,-175 1080.5,-181 1074.5,-187 1068.5,-187"/>
<text text-anchor="start" x="940.5" y="-171.8" font-family="Helvetica,sans-Serif" font-size="14.00">timeframe_2 ≤ 0.5</text>
<text text-anchor="start" x="967" y="-156.8" font-family="Helvetica,sans-Serif" font-size="14.00">gini = 0.49</text>
<text text-anchor="start" x="958" y="-141.8" font-family="Helvetica,sans-Serif" font-size="14.00">samples = 52</text>
<text text-anchor="start" x="949" y="-126.8" font-family="Helvetica,sans-Serif" font-size="14.00">value = [46, 33]</text>
<text text-anchor="start" x="974" y="-111.8" font-family="Helvetica,sans-Serif" font-size="14.00">class = 0</text>
</g>
<!-- 9&#45;&gt;13 -->
<g id="edge13" class="edge">
<title>9&#45;&gt;13</title>
<path fill="none" stroke="black" d="M951.64,-222.91C958.03,-214.01 964.85,-204.51 971.44,-195.33"/>
<polygon fill="black" stroke="black" points="974.42,-197.19 977.41,-187.02 968.73,-193.1 974.42,-197.19"/>
</g>
<!-- 11 -->
<g id="node12" class="node">
<title>11</title>
<path fill="#eeaf81" stroke="black" d="M752.5,-68C752.5,-68 636.5,-68 636.5,-68 630.5,-68 624.5,-62 624.5,-56 624.5,-56 624.5,-12 624.5,-12 624.5,-6 630.5,0 636.5,0 636.5,0 752.5,0 752.5,0 758.5,0 764.5,-6 764.5,-12 764.5,-12 764.5,-56 764.5,-56 764.5,-62 758.5,-68 752.5,-68"/>
<text text-anchor="start" x="655" y="-52.8" font-family="Helvetica,sans-Serif" font-size="14.00">gini = 0.39</text>
<text text-anchor="start" x="641.5" y="-37.8" font-family="Helvetica,sans-Serif" font-size="14.00">samples = 197</text>
<text text-anchor="start" x="632.5" y="-22.8" font-family="Helvetica,sans-Serif" font-size="14.00">value = [227, 82]</text>
<text text-anchor="start" x="662" y="-7.8" font-family="Helvetica,sans-Serif" font-size="14.00">class = 0</text>
</g>
<!-- 10&#45;&gt;11 -->
<g id="edge11" class="edge">
<title>10&#45;&gt;11</title>
<path fill="none" stroke="black" d="M785.51,-103.73C772.83,-94.15 759.33,-83.96 746.73,-74.44"/>
<polygon fill="black" stroke="black" points="748.68,-71.53 738.6,-68.3 744.47,-77.12 748.68,-71.53"/>
</g>
<!-- 12 -->
<g id="node13" class="node">
<title>12</title>
<path fill="#d5eaf9" stroke="black" d="M902,-68C902,-68 795,-68 795,-68 789,-68 783,-62 783,-56 783,-56 783,-12 783,-12 783,-6 789,0 795,0 795,0 902,0 902,0 908,0 914,-6 914,-12 914,-12 914,-56 914,-56 914,-62 908,-68 902,-68"/>
<text text-anchor="start" x="809" y="-52.8" font-family="Helvetica,sans-Serif" font-size="14.00">gini = 0.49</text>
<text text-anchor="start" x="800" y="-37.8" font-family="Helvetica,sans-Serif" font-size="14.00">samples = 94</text>
<text text-anchor="start" x="791" y="-22.8" font-family="Helvetica,sans-Serif" font-size="14.00">value = [59, 75]</text>
<text text-anchor="start" x="816" y="-7.8" font-family="Helvetica,sans-Serif" font-size="14.00">class = 1</text>
</g>
<!-- 10&#45;&gt;12 -->
<g id="edge12" class="edge">
<title>10&#45;&gt;12</title>
<path fill="none" stroke="black" d="M842.85,-103.73C843.53,-95.43 844.25,-86.67 844.94,-78.28"/>
<polygon fill="black" stroke="black" points="848.43,-78.55 845.76,-68.3 841.46,-77.98 848.43,-78.55"/>
</g>
<!-- 14 -->
<g id="node15" class="node">
<title>14</title>
<path fill="#fbebdf" stroke="black" d="M1051,-68C1051,-68 944,-68 944,-68 938,-68 932,-62 932,-56 932,-56 932,-12 932,-12 932,-6 938,0 944,0 944,0 1051,0 1051,0 1057,0 1063,-6 1063,-12 1063,-12 1063,-56 1063,-56 1063,-62 1057,-68 1051,-68"/>
<text text-anchor="start" x="962.5" y="-52.8" font-family="Helvetica,sans-Serif" font-size="14.00">gini = 0.5</text>
<text text-anchor="start" x="949" y="-37.8" font-family="Helvetica,sans-Serif" font-size="14.00">samples = 38</text>
<text text-anchor="start" x="940" y="-22.8" font-family="Helvetica,sans-Serif" font-size="14.00">value = [31, 26]</text>
<text text-anchor="start" x="965" y="-7.8" font-family="Helvetica,sans-Serif" font-size="14.00">class = 0</text>
</g>
<!-- 13&#45;&gt;14 -->
<g id="edge14" class="edge">
<title>13&#45;&gt;14</title>
<path fill="none" stroke="black" d="M1003.15,-103.73C1002.47,-95.43 1001.75,-86.67 1001.06,-78.28"/>
<polygon fill="black" stroke="black" points="1004.54,-77.98 1000.24,-68.3 997.57,-78.55 1004.54,-77.98"/>
</g>
<!-- 15 -->
<g id="node16" class="node">
<title>15</title>
<path fill="#f1bc95" stroke="black" d="M1191.5,-68C1191.5,-68 1093.5,-68 1093.5,-68 1087.5,-68 1081.5,-62 1081.5,-56 1081.5,-56 1081.5,-12 1081.5,-12 1081.5,-6 1087.5,0 1093.5,0 1093.5,0 1191.5,0 1191.5,0 1197.5,0 1203.5,-6 1203.5,-12 1203.5,-12 1203.5,-56 1203.5,-56 1203.5,-62 1197.5,-68 1191.5,-68"/>
<text text-anchor="start" x="1103" y="-52.8" font-family="Helvetica,sans-Serif" font-size="14.00">gini = 0.43</text>
<text text-anchor="start" x="1094" y="-37.8" font-family="Helvetica,sans-Serif" font-size="14.00">samples = 14</text>
<text text-anchor="start" x="1089.5" y="-22.8" font-family="Helvetica,sans-Serif" font-size="14.00">value = [15, 7]</text>
<text text-anchor="start" x="1110" y="-7.8" font-family="Helvetica,sans-Serif" font-size="14.00">class = 0</text>
</g>
<!-- 13&#45;&gt;15 -->
<g id="edge15" class="edge">
<title>13&#45;&gt;15</title>
<path fill="none" stroke="black" d="M1057.14,-103.73C1068.92,-94.24 1081.45,-84.16 1093.17,-74.72"/>
<polygon fill="black" stroke="black" points="1095.55,-77.3 1101.14,-68.3 1091.16,-71.84 1095.55,-77.3"/>
</g>
<!-- 17 -->
<g id="node18" class="node">
<title>17</title>
<path fill="#eead7f" stroke="black" d="M1621.5,-306C1621.5,-306 1487.5,-306 1487.5,-306 1481.5,-306 1475.5,-300 1475.5,-294 1475.5,-294 1475.5,-235 1475.5,-235 1475.5,-229 1481.5,-223 1487.5,-223 1487.5,-223 1621.5,-223 1621.5,-223 1627.5,-223 1633.5,-229 1633.5,-235 1633.5,-235 1633.5,-294 1633.5,-294 1633.5,-300 1627.5,-306 1621.5,-306"/>
<text text-anchor="start" x="1488.5" y="-290.8" font-family="Helvetica,sans-Serif" font-size="14.00">timeframe_2 ≤ 0.5</text>
<text text-anchor="start" x="1515" y="-275.8" font-family="Helvetica,sans-Serif" font-size="14.00">gini = 0.39</text>
<text text-anchor="start" x="1497" y="-260.8" font-family="Helvetica,sans-Serif" font-size="14.00">samples = 2181</text>
<text text-anchor="start" x="1483.5" y="-245.8" font-family="Helvetica,sans-Serif" font-size="14.00">value = [2541, 896]</text>
<text text-anchor="start" x="1522" y="-230.8" font-family="Helvetica,sans-Serif" font-size="14.00">class = 0</text>
</g>
<!-- 16&#45;&gt;17 -->
<g id="edge17" class="edge">
<title>16&#45;&gt;17</title>
<path fill="none" stroke="black" d="M1554.5,-341.91C1554.5,-333.65 1554.5,-324.86 1554.5,-316.3"/>
<polygon fill="black" stroke="black" points="1558,-316.02 1554.5,-306.02 1551,-316.02 1558,-316.02"/>
</g>
<!-- 24 -->
<g id="node25" class="node">
<title>24</title>
<path fill="#f4c8a9" stroke="black" d="M2084.5,-306C2084.5,-306 1896.5,-306 1896.5,-306 1890.5,-306 1884.5,-300 1884.5,-294 1884.5,-294 1884.5,-235 1884.5,-235 1884.5,-229 1890.5,-223 1896.5,-223 1896.5,-223 2084.5,-223 2084.5,-223 2090.5,-223 2096.5,-229 2096.5,-235 2096.5,-235 2096.5,-294 2096.5,-294 2096.5,-300 2090.5,-306 2084.5,-306"/>
<text text-anchor="start" x="1892.5" y="-290.8" font-family="Helvetica,sans-Serif" font-size="14.00">borough_MANHATTAN ≤ 0.5</text>
<text text-anchor="start" x="1951" y="-275.8" font-family="Helvetica,sans-Serif" font-size="14.00">gini = 0.46</text>
<text text-anchor="start" x="1937.5" y="-260.8" font-family="Helvetica,sans-Serif" font-size="14.00">samples = 696</text>
<text text-anchor="start" x="1924" y="-245.8" font-family="Helvetica,sans-Serif" font-size="14.00">value = [688, 390]</text>
<text text-anchor="start" x="1958" y="-230.8" font-family="Helvetica,sans-Serif" font-size="14.00">class = 0</text>
</g>
<!-- 16&#45;&gt;24 -->
<g id="edge24" class="edge">
<title>16&#45;&gt;24</title>
<path fill="none" stroke="black" d="M1638.05,-360.08C1705.14,-342.08 1800.1,-316.59 1874.55,-296.62"/>
<polygon fill="black" stroke="black" points="1875.7,-299.93 1884.45,-293.96 1873.88,-293.17 1875.7,-299.93"/>
</g>
<!-- 18 -->
<g id="node19" class="node">
<title>18</title>
<path fill="#efb082" stroke="black" d="M1523.5,-187C1523.5,-187 1389.5,-187 1389.5,-187 1383.5,-187 1377.5,-181 1377.5,-175 1377.5,-175 1377.5,-116 1377.5,-116 1377.5,-110 1383.5,-104 1389.5,-104 1389.5,-104 1523.5,-104 1523.5,-104 1529.5,-104 1535.5,-110 1535.5,-116 1535.5,-116 1535.5,-175 1535.5,-175 1535.5,-181 1529.5,-187 1523.5,-187"/>
<text text-anchor="start" x="1390.5" y="-171.8" font-family="Helvetica,sans-Serif" font-size="14.00">timeframe_1 ≤ 0.5</text>
<text text-anchor="start" x="1417" y="-156.8" font-family="Helvetica,sans-Serif" font-size="14.00">gini = 0.39</text>
<text text-anchor="start" x="1399" y="-141.8" font-family="Helvetica,sans-Serif" font-size="14.00">samples = 1395</text>
<text text-anchor="start" x="1385.5" y="-126.8" font-family="Helvetica,sans-Serif" font-size="14.00">value = [1615, 599]</text>
<text text-anchor="start" x="1424" y="-111.8" font-family="Helvetica,sans-Serif" font-size="14.00">class = 0</text>
</g>
<!-- 17&#45;&gt;18 -->
<g id="edge18" class="edge">
<title>17&#45;&gt;18</title>
<path fill="none" stroke="black" d="M1520.5,-222.91C1512.9,-213.83 1504.76,-204.12 1496.93,-194.77"/>
<polygon fill="black" stroke="black" points="1499.54,-192.44 1490.44,-187.02 1494.18,-196.93 1499.54,-192.44"/>
</g>
<!-- 21 -->
<g id="node22" class="node">
<title>21</title>
<path fill="#eda979" stroke="black" d="M1741.5,-187C1741.5,-187 1565.5,-187 1565.5,-187 1559.5,-187 1553.5,-181 1553.5,-175 1553.5,-175 1553.5,-116 1553.5,-116 1553.5,-110 1559.5,-104 1565.5,-104 1565.5,-104 1741.5,-104 1741.5,-104 1747.5,-104 1753.5,-110 1753.5,-116 1753.5,-116 1753.5,-175 1753.5,-175 1753.5,-181 1747.5,-187 1741.5,-187"/>
<text text-anchor="start" x="1561.5" y="-171.8" font-family="Helvetica,sans-Serif" font-size="14.00">borough_BROOKLYN ≤ 0.5</text>
<text text-anchor="start" x="1614" y="-156.8" font-family="Helvetica,sans-Serif" font-size="14.00">gini = 0.37</text>
<text text-anchor="start" x="1600.5" y="-141.8" font-family="Helvetica,sans-Serif" font-size="14.00">samples = 786</text>
<text text-anchor="start" x="1587" y="-126.8" font-family="Helvetica,sans-Serif" font-size="14.00">value = [926, 297]</text>
<text text-anchor="start" x="1621" y="-111.8" font-family="Helvetica,sans-Serif" font-size="14.00">class = 0</text>
</g>
<!-- 17&#45;&gt;21 -->
<g id="edge21" class="edge">
<title>17&#45;&gt;21</title>
<path fill="none" stroke="black" d="M1588.85,-222.91C1596.53,-213.83 1604.74,-204.12 1612.66,-194.77"/>
<polygon fill="black" stroke="black" points="1615.43,-196.92 1619.21,-187.02 1610.08,-192.39 1615.43,-196.92"/>
</g>
<!-- 19 -->
<g id="node20" class="node">
<title>19</title>
<path fill="#efb286" stroke="black" d="M1367.5,-68C1367.5,-68 1233.5,-68 1233.5,-68 1227.5,-68 1221.5,-62 1221.5,-56 1221.5,-56 1221.5,-12 1221.5,-12 1221.5,-6 1227.5,0 1233.5,0 1233.5,0 1367.5,0 1367.5,0 1373.5,0 1379.5,-6 1379.5,-12 1379.5,-12 1379.5,-56 1379.5,-56 1379.5,-62 1373.5,-68 1367.5,-68"/>
<text text-anchor="start" x="1265.5" y="-52.8" font-family="Helvetica,sans-Serif" font-size="14.00">gini = 0.4</text>
<text text-anchor="start" x="1247.5" y="-37.8" font-family="Helvetica,sans-Serif" font-size="14.00">samples = 938</text>
<text text-anchor="start" x="1229.5" y="-22.8" font-family="Helvetica,sans-Serif" font-size="14.00">value = [1076, 421]</text>
<text text-anchor="start" x="1268" y="-7.8" font-family="Helvetica,sans-Serif" font-size="14.00">class = 0</text>
</g>
<!-- 18&#45;&gt;19 -->
<g id="edge19" class="edge">
<title>18&#45;&gt;19</title>
<path fill="none" stroke="black" d="M1398.41,-103.73C1384.64,-94.06 1369.98,-83.77 1356.31,-74.17"/>
<polygon fill="black" stroke="black" points="1358.14,-71.18 1347.94,-68.3 1354.11,-76.91 1358.14,-71.18"/>
</g>
<!-- 20 -->
<g id="node21" class="node">
<title>20</title>
<path fill="#eeab7a" stroke="black" d="M1534,-68C1534,-68 1409,-68 1409,-68 1403,-68 1397,-62 1397,-56 1397,-56 1397,-12 1397,-12 1397,-6 1403,0 1409,0 1409,0 1534,0 1534,0 1540,0 1546,-6 1546,-12 1546,-12 1546,-56 1546,-56 1546,-62 1540,-68 1534,-68"/>
<text text-anchor="start" x="1432" y="-52.8" font-family="Helvetica,sans-Serif" font-size="14.00">gini = 0.37</text>
<text text-anchor="start" x="1418.5" y="-37.8" font-family="Helvetica,sans-Serif" font-size="14.00">samples = 457</text>
<text text-anchor="start" x="1405" y="-22.8" font-family="Helvetica,sans-Serif" font-size="14.00">value = [539, 178]</text>
<text text-anchor="start" x="1439" y="-7.8" font-family="Helvetica,sans-Serif" font-size="14.00">class = 0</text>
</g>
<!-- 18&#45;&gt;20 -->
<g id="edge20" class="edge">
<title>18&#45;&gt;20</title>
<path fill="none" stroke="black" d="M1462.09,-103.73C1463.22,-95.43 1464.42,-86.67 1465.57,-78.28"/>
<polygon fill="black" stroke="black" points="1469.05,-78.68 1466.94,-68.3 1462.11,-77.73 1469.05,-78.68"/>
</g>
<!-- 22 -->
<g id="node23" class="node">
<title>22</title>
<path fill="#eda977" stroke="black" d="M1701,-68C1701,-68 1576,-68 1576,-68 1570,-68 1564,-62 1564,-56 1564,-56 1564,-12 1564,-12 1564,-6 1570,0 1576,0 1576,0 1701,0 1701,0 1707,0 1713,-6 1713,-12 1713,-12 1713,-56 1713,-56 1713,-62 1707,-68 1701,-68"/>
<text text-anchor="start" x="1599" y="-52.8" font-family="Helvetica,sans-Serif" font-size="14.00">gini = 0.36</text>
<text text-anchor="start" x="1585.5" y="-37.8" font-family="Helvetica,sans-Serif" font-size="14.00">samples = 613</text>
<text text-anchor="start" x="1572" y="-22.8" font-family="Helvetica,sans-Serif" font-size="14.00">value = [717, 225]</text>
<text text-anchor="start" x="1606" y="-7.8" font-family="Helvetica,sans-Serif" font-size="14.00">class = 0</text>
</g>
<!-- 21&#45;&gt;22 -->
<g id="edge22" class="edge">
<title>21&#45;&gt;22</title>
<path fill="none" stroke="black" d="M1647.91,-103.73C1646.78,-95.43 1645.58,-86.67 1644.43,-78.28"/>
<polygon fill="black" stroke="black" points="1647.89,-77.73 1643.06,-68.3 1640.95,-78.68 1647.89,-77.73"/>
</g>
<!-- 23 -->
<g id="node24" class="node">
<title>23</title>
<path fill="#eeac7d" stroke="black" d="M1859.5,-68C1859.5,-68 1743.5,-68 1743.5,-68 1737.5,-68 1731.5,-62 1731.5,-56 1731.5,-56 1731.5,-12 1731.5,-12 1731.5,-6 1737.5,0 1743.5,0 1743.5,0 1859.5,0 1859.5,0 1865.5,0 1871.5,-6 1871.5,-12 1871.5,-12 1871.5,-56 1871.5,-56 1871.5,-62 1865.5,-68 1859.5,-68"/>
<text text-anchor="start" x="1762" y="-52.8" font-family="Helvetica,sans-Serif" font-size="14.00">gini = 0.38</text>
<text text-anchor="start" x="1748.5" y="-37.8" font-family="Helvetica,sans-Serif" font-size="14.00">samples = 173</text>
<text text-anchor="start" x="1739.5" y="-22.8" font-family="Helvetica,sans-Serif" font-size="14.00">value = [209, 72]</text>
<text text-anchor="start" x="1769" y="-7.8" font-family="Helvetica,sans-Serif" font-size="14.00">class = 0</text>
</g>
<!-- 21&#45;&gt;23 -->
<g id="edge23" class="edge">
<title>21&#45;&gt;23</title>
<path fill="none" stroke="black" d="M1708.61,-103.73C1721.55,-94.15 1735.32,-83.96 1748.19,-74.44"/>
<polygon fill="black" stroke="black" points="1750.54,-77.06 1756.49,-68.3 1746.37,-71.43 1750.54,-77.06"/>
</g>
<!-- 25 -->
<g id="node26" class="node">
<title>25</title>
<path fill="#f4cbae" stroke="black" d="M2095.5,-187C2095.5,-187 1885.5,-187 1885.5,-187 1879.5,-187 1873.5,-181 1873.5,-175 1873.5,-175 1873.5,-116 1873.5,-116 1873.5,-110 1879.5,-104 1885.5,-104 1885.5,-104 2095.5,-104 2095.5,-104 2101.5,-104 2107.5,-110 2107.5,-116 2107.5,-116 2107.5,-175 2107.5,-175 2107.5,-181 2101.5,-187 2095.5,-187"/>
<text text-anchor="start" x="1881.5" y="-171.8" font-family="Helvetica,sans-Serif" font-size="14.00">borough_STATEN ISLAND ≤ 0.5</text>
<text text-anchor="start" x="1951" y="-156.8" font-family="Helvetica,sans-Serif" font-size="14.00">gini = 0.47</text>
<text text-anchor="start" x="1937.5" y="-141.8" font-family="Helvetica,sans-Serif" font-size="14.00">samples = 628</text>
<text text-anchor="start" x="1924" y="-126.8" font-family="Helvetica,sans-Serif" font-size="14.00">value = [613, 361]</text>
<text text-anchor="start" x="1958" y="-111.8" font-family="Helvetica,sans-Serif" font-size="14.00">class = 0</text>
</g>
<!-- 24&#45;&gt;25 -->
<g id="edge25" class="edge">
<title>24&#45;&gt;25</title>
<path fill="none" stroke="black" d="M1990.5,-222.91C1990.5,-214.65 1990.5,-205.86 1990.5,-197.3"/>
<polygon fill="black" stroke="black" points="1994,-197.02 1990.5,-187.02 1987,-197.02 1994,-197.02"/>
</g>
<!-- 28 -->
<g id="node29" class="node">
<title>28</title>
<path fill="#efb286" stroke="black" d="M2362.5,-187C2362.5,-187 2164.5,-187 2164.5,-187 2158.5,-187 2152.5,-181 2152.5,-175 2152.5,-175 2152.5,-116 2152.5,-116 2152.5,-110 2158.5,-104 2164.5,-104 2164.5,-104 2362.5,-104 2362.5,-104 2368.5,-104 2374.5,-110 2374.5,-116 2374.5,-116 2374.5,-175 2374.5,-175 2374.5,-181 2368.5,-187 2362.5,-187"/>
<text text-anchor="start" x="2160.5" y="-171.8" font-family="Helvetica,sans-Serif" font-size="14.00">time_of_week_weekend ≤ 0.5</text>
<text text-anchor="start" x="2228.5" y="-156.8" font-family="Helvetica,sans-Serif" font-size="14.00">gini = 0.4</text>
<text text-anchor="start" x="2215" y="-141.8" font-family="Helvetica,sans-Serif" font-size="14.00">samples = 68</text>
<text text-anchor="start" x="2206" y="-126.8" font-family="Helvetica,sans-Serif" font-size="14.00">value = [75, 29]</text>
<text text-anchor="start" x="2231" y="-111.8" font-family="Helvetica,sans-Serif" font-size="14.00">class = 0</text>
</g>
<!-- 24&#45;&gt;28 -->
<g id="edge28" class="edge">
<title>24&#45;&gt;28</title>
<path fill="none" stroke="black" d="M2085.22,-222.91C2109.25,-212.61 2135.2,-201.49 2159.66,-191"/>
<polygon fill="black" stroke="black" points="2161.14,-194.18 2168.95,-187.02 2158.38,-187.74 2161.14,-194.18"/>
</g>
<!-- 26 -->
<g id="node27" class="node">
<title>26</title>
<path fill="#f5ccb0" stroke="black" d="M2027,-68C2027,-68 1902,-68 1902,-68 1896,-68 1890,-62 1890,-56 1890,-56 1890,-12 1890,-12 1890,-6 1896,0 1902,0 1902,0 2027,0 2027,0 2033,0 2039,-6 2039,-12 2039,-12 2039,-56 2039,-56 2039,-62 2033,-68 2027,-68"/>
<text text-anchor="start" x="1925" y="-52.8" font-family="Helvetica,sans-Serif" font-size="14.00">gini = 0.47</text>
<text text-anchor="start" x="1911.5" y="-37.8" font-family="Helvetica,sans-Serif" font-size="14.00">samples = 607</text>
<text text-anchor="start" x="1898" y="-22.8" font-family="Helvetica,sans-Serif" font-size="14.00">value = [588, 352]</text>
<text text-anchor="start" x="1932" y="-7.8" font-family="Helvetica,sans-Serif" font-size="14.00">class = 0</text>
</g>
<!-- 25&#45;&gt;26 -->
<g id="edge26" class="edge">
<title>25&#45;&gt;26</title>
<path fill="none" stroke="black" d="M1980.82,-103.73C1978.85,-95.43 1976.77,-86.67 1974.78,-78.28"/>
<polygon fill="black" stroke="black" points="1978.12,-77.22 1972.41,-68.3 1971.31,-78.84 1978.12,-77.22"/>
</g>
<!-- 27 -->
<g id="node28" class="node">
<title>27</title>
<path fill="#eeae80" stroke="black" d="M2167.5,-68C2167.5,-68 2069.5,-68 2069.5,-68 2063.5,-68 2057.5,-62 2057.5,-56 2057.5,-56 2057.5,-12 2057.5,-12 2057.5,-6 2063.5,0 2069.5,0 2069.5,0 2167.5,0 2167.5,0 2173.5,0 2179.5,-6 2179.5,-12 2179.5,-12 2179.5,-56 2179.5,-56 2179.5,-62 2173.5,-68 2167.5,-68"/>
<text text-anchor="start" x="2079" y="-52.8" font-family="Helvetica,sans-Serif" font-size="14.00">gini = 0.39</text>
<text text-anchor="start" x="2070" y="-37.8" font-family="Helvetica,sans-Serif" font-size="14.00">samples = 21</text>
<text text-anchor="start" x="2065.5" y="-22.8" font-family="Helvetica,sans-Serif" font-size="14.00">value = [25, 9]</text>
<text text-anchor="start" x="2086" y="-7.8" font-family="Helvetica,sans-Serif" font-size="14.00">class = 0</text>
</g>
<!-- 25&#45;&gt;27 -->
<g id="edge27" class="edge">
<title>25&#45;&gt;27</title>
<path fill="none" stroke="black" d="M2038.16,-103.73C2049.14,-94.33 2060.81,-84.35 2071.76,-74.99"/>
<polygon fill="black" stroke="black" points="2074.25,-77.46 2079.57,-68.3 2069.7,-72.14 2074.25,-77.46"/>
</g>
<!-- 29 -->
<g id="node30" class="node">
<title>29</title>
<path fill="#efb285" stroke="black" d="M2317,-68C2317,-68 2210,-68 2210,-68 2204,-68 2198,-62 2198,-56 2198,-56 2198,-12 2198,-12 2198,-6 2204,0 2210,0 2210,0 2317,0 2317,0 2323,0 2329,-6 2329,-12 2329,-12 2329,-56 2329,-56 2329,-62 2323,-68 2317,-68"/>
<text text-anchor="start" x="2228.5" y="-52.8" font-family="Helvetica,sans-Serif" font-size="14.00">gini = 0.4</text>
<text text-anchor="start" x="2215" y="-37.8" font-family="Helvetica,sans-Serif" font-size="14.00">samples = 53</text>
<text text-anchor="start" x="2206" y="-22.8" font-family="Helvetica,sans-Serif" font-size="14.00">value = [57, 22]</text>
<text text-anchor="start" x="2231" y="-7.8" font-family="Helvetica,sans-Serif" font-size="14.00">class = 0</text>
</g>
<!-- 28&#45;&gt;29 -->
<g id="edge29" class="edge">
<title>28&#45;&gt;29</title>
<path fill="none" stroke="black" d="M2263.5,-103.73C2263.5,-95.52 2263.5,-86.86 2263.5,-78.56"/>
<polygon fill="black" stroke="black" points="2267,-78.3 2263.5,-68.3 2260,-78.3 2267,-78.3"/>
</g>
<!-- 30 -->
<g id="node31" class="node">
<title>30</title>
<path fill="#efb286" stroke="black" d="M2457.5,-68C2457.5,-68 2359.5,-68 2359.5,-68 2353.5,-68 2347.5,-62 2347.5,-56 2347.5,-56 2347.5,-12 2347.5,-12 2347.5,-6 2353.5,0 2359.5,0 2359.5,0 2457.5,0 2457.5,0 2463.5,0 2469.5,-6 2469.5,-12 2469.5,-12 2469.5,-56 2469.5,-56 2469.5,-62 2463.5,-68 2457.5,-68"/>
<text text-anchor="start" x="2373.5" y="-52.8" font-family="Helvetica,sans-Serif" font-size="14.00">gini = 0.4</text>
<text text-anchor="start" x="2360" y="-37.8" font-family="Helvetica,sans-Serif" font-size="14.00">samples = 15</text>
<text text-anchor="start" x="2355.5" y="-22.8" font-family="Helvetica,sans-Serif" font-size="14.00">value = [18, 7]</text>
<text text-anchor="start" x="2376" y="-7.8" font-family="Helvetica,sans-Serif" font-size="14.00">class = 0</text>
</g>
<!-- 28&#45;&gt;30 -->
<g id="edge30" class="edge">
<title>28&#45;&gt;30</title>
<path fill="none" stroke="black" d="M2317.49,-103.73C2330.17,-94.15 2343.67,-83.96 2356.27,-74.44"/>
<polygon fill="black" stroke="black" points="2358.53,-77.12 2364.4,-68.3 2354.32,-71.53 2358.53,-77.12"/>
</g>
</g>
</svg>
